<?xml version="1.0" standalone="no"?>
<!DOCTYPE svg PUBLIC "-//W3C//DTD SVG 20010904//EN"
 "http://www.w3.org/TR/2001/REC-SVG-20010904/DTD/svg10.dtd">
<svg version="1.0" xmlns="http://www.w3.org/2000/svg"
 width="1024.000000pt" height="1024.000000pt" viewBox="0 0 1024.000000 1024.000000"
 preserveAspectRatio="xMidYMid meet">
<metadata>
Created by potrace 1.14, written by Peter Selinger 2001-2017
</metadata>
<g transform="translate(0.000000,1024.000000) scale(0.100000,-0.100000)"
fill="#000000" stroke="none">
<path d="M0 8171 c0 -1835 2 -2070 15 -2081 9 -7 39 -39 67 -72 47 -55 50 -61
38 -83 -7 -14 -19 -25 -27 -25 -18 0 -16 27 3 34 14 5 14 9 3 22 -12 14 -14
14 -21 -5 -4 -12 -14 -21 -23 -21 -22 0 -18 -21 5 -27 25 -7 26 -35 2 -56 -24
-22 -30 -21 -34 5 -4 28 -28 36 -28 9 0 -11 18 -37 41 -58 47 -44 46 -73 -3
-73 -25 0 -28 3 -23 20 4 11 2 20 -4 20 -19 0 -12 -45 9 -63 19 -16 22 -16 36
-2 19 18 26 19 42 3 9 -9 17 -9 35 1 17 9 30 9 51 2 15 -6 41 -11 58 -11 21 0
31 -6 35 -19 3 -12 11 -17 19 -14 7 3 21 -2 30 -11 11 -12 20 -14 28 -6 16 12
26 3 26 -23 0 -13 5 -17 16 -13 10 4 21 -4 32 -24 9 -16 22 -30 27 -30 10 0
81 -66 165 -153 25 -26 39 -47 32 -47 -6 0 -12 -5 -12 -11 0 -8 4 -8 15 1 15
12 35 6 35 -11 0 -5 8 -17 17 -28 10 -10 70 -74 133 -141 79 -84 114 -129 112
-143 -1 -11 3 -26 9 -33 7 -9 7 -19 0 -31 -9 -17 -10 -17 -16 0 -4 9 -5 31 -3
47 4 26 2 29 -14 24 -10 -3 -18 -1 -18 5 0 6 -7 11 -15 11 -8 0 -15 5 -15 11
0 5 -5 7 -10 4 -17 -11 -11 -35 9 -35 14 0 20 -9 23 -35 2 -20 2 -38 -1 -40
-2 -3 -24 -5 -48 -5 -39 0 -44 -2 -38 -19 3 -10 -1 -24 -10 -31 -13 -11 -14
-8 -11 16 2 16 1 23 -1 17 -7 -21 -30 -15 -53 14 -17 22 -23 24 -30 13 -5 -8
-6 -18 -3 -24 4 -5 -1 -7 -11 -3 -10 4 -20 7 -22 7 -2 0 -4 9 -4 20 0 11 -6
20 -13 20 -8 0 -28 15 -45 33 -17 17 -55 55 -84 84 -29 28 -64 66 -78 84 -14
18 -49 58 -78 88 -28 30 -52 56 -52 57 0 1 -25 27 -55 58 -30 31 -55 59 -55
64 0 4 -32 39 -71 76 l-71 69 22 39 c12 21 19 44 17 51 -4 9 -6 9 -6 0 -1 -7
-11 -13 -23 -13 -16 0 -19 -3 -11 -11 13 -13 6 -39 -11 -39 -6 0 -16 10 -21
22 -6 12 -16 23 -23 26 -9 3 -12 -140 -12 -691 l0 -695 26 -17 c14 -9 35 -25
47 -35 22 -18 268 -220 297 -243 8 -7 35 -28 60 -47 25 -19 47 -37 50 -40 5
-7 201 -165 318 -258 61 -48 106 -86 157 -133 27 -25 75 -63 105 -85 60 -43
61 -43 140 -106 30 -24 71 -54 90 -68 29 -20 97 -72 160 -124 9 -6 42 -32 75
-56 33 -24 76 -58 96 -75 19 -16 53 -43 74 -60 22 -16 46 -37 55 -45 9 -8 45
-35 80 -59 36 -24 79 -56 95 -71 79 -70 678 -470 704 -470 5 0 11 -3 13 -7 2
-5 53 -33 113 -63 107 -53 192 -105 207 -125 8 -10 4 19 -13 108 -12 65 -11
115 2 119 6 2 -7 23 -30 46 -22 22 -41 45 -41 51 0 5 -7 11 -15 15 -8 3 -15 2
-15 -2 0 -20 33 -119 46 -137 8 -11 14 -26 14 -35 0 -8 7 -28 15 -44 19 -36
13 -65 -9 -44 -8 7 -29 24 -46 38 -37 28 -124 129 -288 334 -62 77 -118 148
-125 156 -7 8 -28 35 -47 60 -19 24 -41 50 -47 58 -7 7 -61 75 -120 150 -59
75 -112 142 -118 148 -5 6 -46 55 -90 109 -44 54 -105 128 -135 164 -145 172
-304 390 -337 461 -4 8 -13 21 -20 28 -7 7 -13 19 -13 25 0 13 118 -106 285
-287 61 -66 151 -163 201 -215 50 -53 111 -119 135 -147 57 -66 288 -324 353
-394 71 -77 162 -182 230 -268 32 -39 62 -72 67 -72 7 0 11 14 22 95 7 43 41
163 60 208 24 55 119 151 214 213 45 30 85 54 88 54 3 0 24 12 46 27 37 24 39
28 24 39 -10 7 -14 18 -9 25 5 9 11 7 20 -6 12 -16 17 -17 38 -5 26 13 56 8
56 -10 0 -5 -7 -10 -16 -10 -9 0 -18 -9 -21 -20 -3 -13 -14 -20 -29 -20 -12 0
-25 -4 -29 -9 -3 -6 -18 -16 -33 -24 -102 -52 -242 -144 -242 -158 0 -6 6 -9
14 -6 16 6 45 -31 39 -49 -3 -8 -16 -7 -46 3 -42 15 -42 14 -67 -15 -14 -17
-31 -49 -38 -72 -11 -36 -11 -45 1 -59 8 -9 18 -26 21 -38 4 -13 23 -36 43
-52 19 -16 33 -34 29 -39 -8 -13 188 -242 207 -242 18 0 100 -42 132 -68 19
-15 31 -36 36 -65 18 -97 30 -141 39 -147 5 -3 11 -15 13 -27 1 -12 9 -28 16
-37 7 -9 10 -16 5 -16 -5 0 -4 -4 1 -8 6 -4 18 -32 28 -62 9 -31 26 -66 37
-78 11 -11 20 -25 20 -30 0 -9 59 -120 72 -137 5 -5 17 -21 28 -34 11 -13 20
-28 20 -32 0 -9 99 -172 109 -179 4 -3 15 -21 25 -40 38 -75 47 -90 57 -90 5
0 9 -7 9 -15 0 -8 4 -15 9 -15 4 0 22 -21 39 -47 17 -27 63 -93 102 -148 38
-55 70 -105 70 -111 0 -6 8 -22 19 -35 10 -13 22 -35 26 -48 8 -25 17 -39 49
-71 10 -10 16 -25 13 -33 -5 -14 4 -46 32 -112 24 -56 119 -237 146 -279 10
-15 15 -30 11 -34 -7 -7 -102 95 -105 113 -1 6 -11 13 -22 17 -11 4 -22 21
-25 38 -5 21 -12 30 -25 30 -11 0 -19 7 -19 15 0 9 -14 22 -30 29 -33 13 -97
66 -164 132 -22 23 -52 44 -66 45 -14 2 -24 8 -22 14 2 5 -6 12 -17 17 -12 4
-21 13 -21 21 0 7 -14 23 -30 35 -17 13 -30 29 -30 36 0 8 -6 17 -12 20 -10 5
-10 7 0 12 20 9 14 21 -18 34 -16 7 -31 15 -31 19 -1 3 -3 17 -4 30 -1 14 -10
30 -19 36 -9 7 -16 22 -16 34 0 31 -38 101 -58 108 -23 9 -32 23 -32 51 0 12
-8 26 -17 29 -31 12 -53 37 -53 61 0 17 -8 26 -30 34 -22 7 -29 15 -25 27 3
11 -5 27 -20 41 -14 13 -25 29 -25 37 0 20 -81 183 -91 183 -5 0 -9 9 -9 20 0
12 -10 24 -24 30 -18 7 -23 14 -19 29 3 14 -2 27 -16 38 -15 13 -21 31 -23 66
-1 53 -11 67 -28 40 -9 -15 -10 -13 -7 14 2 18 2 31 -1 28 -10 -10 -53 56 -48
73 3 10 0 27 -8 37 -14 20 -11 49 5 39 5 -3 6 2 3 10 -6 17 -25 17 -36 1 -4
-5 -8 1 -8 15 0 28 -49 140 -62 140 -4 0 -8 5 -8 11 0 6 -13 24 -29 40 -52 52
-61 40 -35 -50 9 -31 21 -74 27 -96 6 -22 14 -44 19 -49 4 -6 8 -21 8 -34 0
-13 4 -21 9 -17 6 3 13 -11 17 -32 4 -21 15 -56 25 -78 10 -22 23 -89 29 -149
6 -60 16 -118 22 -129 5 -11 8 -30 5 -44 -3 -16 0 -23 8 -19 8 3 12 -5 11 -22
0 -15 3 -37 7 -49 5 -15 4 -23 -2 -23 -6 0 -11 5 -11 12 0 17 -74 121 -78 110
-2 -6 5 -28 16 -49 17 -34 62 -156 62 -168 0 -3 -4 -5 -9 -5 -5 0 -14 14 -20
31 -6 17 -15 28 -21 24 -6 -3 -8 -10 -5 -15 3 -5 2 -17 -3 -27 -5 -10 -17 -36
-27 -57 -12 -29 -19 -36 -25 -26 -9 14 -19 -76 -20 -185 l-1 -60 -10 40 c-11
42 -7 186 10 404 6 69 8 127 5 130 -2 3 -24 -1 -47 -9 -28 -10 -51 -28 -72
-57 -16 -23 -35 -40 -42 -38 -7 2 -10 -2 -6 -10 3 -10 -5 -18 -22 -25 -17 -7
-25 -15 -22 -25 3 -7 -14 -44 -39 -81 -24 -37 -46 -75 -49 -84 -3 -9 -16 -23
-29 -30 -14 -7 -22 -18 -20 -25 7 -18 -15 -95 -27 -95 -6 0 -7 -5 -4 -11 4 -6
0 -9 -11 -7 -11 2 -27 -10 -42 -32 -13 -19 -28 -34 -33 -32 -5 1 -9 -7 -9 -18
0 -11 -7 -20 -15 -20 -18 0 -20 -17 -3 -22 7 -3 9 -12 4 -24 -7 -17 -8 -18
-17 -2 -5 10 -16 15 -24 12 -17 -7 -21 -34 -5 -34 6 0 10 -7 10 -15 0 -8 -5
-15 -11 -15 -8 0 -8 -4 0 -14 9 -11 9 -16 0 -21 -6 -5 -9 -19 -5 -37 6 -28 -9
-154 -23 -192 -13 -35 -72 107 -85 206 -13 90 -29 126 -45 99 -5 -8 -14 -10
-21 -6 -8 5 -19 0 -29 -13 -9 -11 -29 -22 -46 -24 -16 -1 -33 -7 -37 -13 -4
-5 -5 7 -1 28 7 46 0 47 -21 2 -14 -28 -17 -65 -17 -177 1 -131 5 -160 34
-263 13 -47 133 -287 197 -395 25 -42 53 -89 62 -105 l17 -30 270 -3 271 -2 0
24 c0 13 3 31 6 40 3 9 1 16 -5 16 -6 0 -11 -10 -11 -22 -1 -22 -1 -22 -12 -3
-7 11 -11 35 -10 52 2 18 -2 33 -8 33 -5 0 -10 -5 -10 -11 0 -8 -5 -8 -15 1
-17 14 -20 60 -4 60 6 0 17 -7 25 -15 26 -26 37 -18 31 24 -2 21 -1 45 4 52 5
8 9 12 10 9 9 -53 13 -57 34 -40 9 8 13 21 9 36 -3 12 -3 28 1 34 11 18 36
-10 30 -31 -5 -15 -1 -19 18 -19 14 0 28 6 31 13 5 9 7 9 12 -2 4 -7 15 -22
25 -32 11 -11 19 -28 19 -40 0 -11 4 -17 10 -14 9 6 70 -79 70 -97 0 -5 10
-22 22 -38 l22 -30 729 0 c636 0 728 2 724 15 -4 8 -25 45 -49 82 -62 98 -66
104 -87 148 -11 22 -28 49 -38 60 -28 31 -73 103 -73 118 0 7 -22 58 -50 114
-27 56 -50 104 -50 107 0 3 -16 30 -35 60 -19 30 -35 58 -35 61 0 3 -11 28
-25 57 -14 28 -25 57 -25 64 0 6 -7 15 -16 18 -13 5 -14 9 -4 20 9 11 8 21 -4
44 -8 16 -22 49 -30 73 -14 39 -13 45 0 60 11 13 12 18 3 21 -18 6 -20 128 -2
135 20 8 94 -26 119 -54 12 -13 28 -23 36 -23 16 0 48 -31 48 -46 0 -5 17 -17
38 -27 20 -10 51 -25 67 -34 17 -9 38 -20 47 -25 24 -11 75 -10 83 2 9 14 49
12 64 -3 10 -10 14 -9 22 6 6 9 22 17 37 17 15 0 44 9 65 20 20 11 44 20 52
20 9 0 32 16 52 35 30 29 43 35 79 35 24 0 46 5 49 10 3 6 16 10 29 10 12 0
27 5 33 11 7 7 20 4 44 -10 19 -12 42 -21 52 -21 9 0 17 -4 17 -10 0 -14 123
-13 137 1 6 6 31 13 55 15 59 4 90 12 102 24 5 5 17 10 26 10 9 0 25 9 35 20
12 14 22 17 28 11 7 -7 16 -3 28 11 13 14 24 18 36 13 10 -5 21 -7 26 -7 10 3
9 -32 -2 -44 -5 -5 -24 -54 -41 -109 -37 -119 -42 -131 -95 -215 -22 -35 -44
-72 -50 -81 -5 -10 -31 -50 -56 -91 -25 -40 -66 -106 -90 -146 -101 -169 -136
-223 -151 -235 -9 -6 -23 -28 -31 -47 -59 -133 -126 -268 -136 -274 -6 -4 -11
-11 -11 -17 0 -6 327 -9 868 -9 l868 0 12 33 c16 44 15 47 -5 47 -13 0 -11 4
7 13 31 15 41 67 14 67 -14 0 -15 3 -6 12 9 9 15 8 26 -7 14 -19 16 -18 58 28
25 26 50 47 56 47 7 0 12 14 12 33 0 36 15 53 73 81 21 9 58 38 81 63 38 39
44 43 55 29 8 -9 16 -34 18 -57 4 -35 2 -41 -17 -46 -13 -4 -19 -11 -16 -20 3
-8 6 -19 6 -24 0 -4 7 -6 16 -2 12 4 15 2 12 -8 -3 -8 -13 -16 -24 -18 -25 -4
-35 -22 -23 -38 8 -9 17 -7 37 12 14 13 28 22 32 19 3 -3 -4 -12 -14 -20 -11
-8 -16 -14 -12 -14 4 0 -6 -11 -23 -25 -16 -14 -33 -35 -36 -46 -4 -11 -18
-24 -31 -29 -28 -11 -31 -35 -6 -50 14 -8 12 -9 -9 -4 -15 3 -30 1 -33 -5 -9
-15 -43 -14 -48 1 -3 7 -12 9 -23 4 -29 -11 -4 -27 44 -28 41 0 54 -11 26 -22
-8 -3 -15 -10 -15 -16 0 -7 95 -10 283 -10 l282 0 20 29 c92 132 148 217 169
253 13 24 38 70 56 103 18 33 41 74 50 90 18 30 37 82 58 160 6 22 15 58 22
80 19 67 25 232 10 260 -14 26 -46 36 -37 11 7 -19 -39 -31 -56 -14 -7 6 -11
25 -9 41 3 16 1 32 -4 36 -8 6 -34 54 -83 160 -12 25 -21 53 -21 63 0 10 -4
18 -10 18 -5 0 -19 20 -31 45 -12 25 -25 45 -30 45 -4 0 -6 -26 -3 -57 3 -32
5 -66 5 -75 0 -10 4 -20 10 -23 5 -4 9 -15 9 -26 0 -33 -34 -19 -40 16 l-6 30
-14 -37 c-10 -28 -21 -39 -42 -43 -20 -5 -33 -17 -43 -41 -14 -34 -37 -44 -51
-22 -4 6 -2 14 4 16 16 5 15 45 0 60 -16 16 -45 15 -51 0 -4 -9 -6 -8 -6 2 0
8 6 24 14 34 17 22 20 66 5 66 -5 0 -10 -5 -10 -11 0 -5 -5 -7 -11 -3 -8 4 -7
9 2 15 12 8 12 10 1 18 -8 4 -17 38 -22 75 -4 37 -13 73 -20 81 -6 8 -9 23 -5
34 6 21 -64 167 -107 221 -13 16 -36 45 -53 66 -16 20 -39 50 -50 65 -11 16
-26 29 -32 29 -7 0 -13 10 -13 23 0 12 -4 29 -10 37 -10 17 -7 24 -41 -90 -23
-79 -60 -158 -104 -225 l-26 -40 5 34 c4 19 17 58 31 86 13 29 38 97 56 151
17 55 37 120 46 146 20 63 32 263 23 373 -9 108 -5 259 9 283 8 15 10 14 15
-8 7 -31 -1 -480 -9 -570 -7 -64 -6 -65 27 -97 18 -17 50 -41 71 -52 20 -12
54 -30 75 -42 38 -22 80 -52 119 -86 31 -28 163 -205 163 -220 0 -7 4 -13 9
-13 5 0 11 -8 14 -18 4 -9 18 -37 33 -62 15 -25 35 -60 46 -78 35 -63 50 -82
64 -82 37 0 745 354 907 454 59 36 110 66 113 66 3 0 32 18 64 40 32 22 62 40
65 40 4 0 26 14 50 30 24 17 46 30 49 30 3 0 33 17 67 38 107 64 152 89 219
125 36 19 112 61 170 94 175 100 432 233 653 338 l57 27 -2 1187 c-3 1103 -4
1186 -20 1183 -9 -1 -19 2 -23 7 -3 6 -12 8 -20 4 -8 -3 -15 0 -15 6 0 15 -37
14 -46 -1 -4 -6 0 -16 9 -23 22 -16 21 -22 -5 -28 -21 -6 -21 -7 -5 -25 24
-26 21 -32 -8 -19 -25 12 -35 47 -14 47 8 0 8 5 -1 15 -7 8 -18 15 -24 14 -7
0 -6 -2 2 -6 17 -7 15 -20 -4 -27 -23 -9 -64 4 -64 20 0 8 -9 14 -19 14 -17 0
-18 3 -8 25 7 14 19 27 28 30 23 8 54 44 45 52 -4 4 -16 2 -26 -5 -33 -20 -35
-13 -5 18 21 22 38 30 64 31 20 0 30 3 24 6 -22 8 -14 23 13 23 21 0 25 4 20
17 -5 13 6 29 41 60 26 24 51 43 55 43 5 0 8 313 8 695 0 392 -4 695 -9 695
-5 0 -14 -7 -21 -15 -7 -8 -19 -15 -27 -15 -9 0 -2 15 21 42 l36 42 0 1763 0
1763 -2535 0 -2535 0 0 -714 c0 -393 3 -721 6 -730 9 -23 70 -21 91 4 13 15
20 17 30 8 8 -6 33 -13 56 -15 62 -6 231 -41 284 -59 190 -65 491 -255 649
-412 106 -104 263 -329 279 -397 6 -29 6 -29 -9 -10 -8 11 -16 23 -16 28 0 11
-48 83 -100 152 -195 257 -378 393 -693 516 -56 21 -107 39 -114 39 -7 0 -27
6 -45 14 -18 8 -53 20 -78 26 -68 19 -104 33 -112 44 -5 7 -11 7 -20 -2 -16
-16 -45 -16 -51 1 -3 9 -7 9 -19 0 -11 -10 -17 -10 -26 -1 -9 9 -15 9 -24 0
-17 -17 -31 -15 -24 4 5 13 0 12 -27 -4 -17 -11 -70 -25 -117 -32 -149 -22
-140 -27 55 -33 228 -8 432 -38 597 -88 193 -58 471 -240 430 -281 -6 -6 -23
4 -50 31 -22 23 -48 41 -56 41 -9 0 -16 4 -16 9 0 12 -76 51 -92 47 -7 -1 -10
-1 -5 1 4 3 7 9 7 14 0 14 -38 11 -43 -3 -3 -8 -9 -2 -15 14 -13 32 -20 37
-63 42 -19 3 -66 23 -104 45 -69 41 -119 50 -138 26 -5 -6 -7 -3 -3 8 6 19
-13 22 -106 17 -30 -1 -48 2 -48 9 0 6 -20 11 -48 11 -26 0 -53 5 -59 11 -17
17 -326 24 -447 10 -197 -23 -256 -32 -289 -46 -21 -9 -38 -10 -48 -4 -7 5
-27 9 -44 9 -27 -1 -28 -2 -12 -14 16 -13 14 -15 -29 -30 -26 -9 -57 -16 -68
-16 -17 1 -13 5 14 20 30 16 32 19 13 20 -13 0 -23 -4 -23 -10 0 -5 -14 -10
-31 -10 -50 0 -122 -21 -110 -33 7 -7 15 -6 25 2 13 11 74 5 62 -6 -9 -10
-115 -19 -109 -10 4 6 -40 7 -118 4 -137 -7 -201 4 -299 51 -64 30 -65 30 -58
37 2 3 29 -3 59 -13 149 -51 284 -52 489 -2 25 6 70 14 101 18 31 5 68 16 82
25 15 9 39 17 55 17 16 0 42 4 58 9 16 5 54 14 84 20 97 21 144 33 165 41 73
29 129 45 190 54 l70 11 3 733 2 732 -2560 0 -2560 0 0 -2069z m5120 322 c-1
-5 -36 -25 -78 -45 -42 -20 -88 -44 -102 -52 -14 -9 -50 -27 -80 -42 -78 -36
-150 -77 -158 -90 -4 -6 -18 -15 -31 -19 -13 -4 -51 -29 -84 -56 -34 -27 -65
-49 -69 -49 -4 0 -24 -18 -44 -40 -20 -22 -42 -40 -49 -40 -7 0 -15 -6 -18
-12 -2 -7 -8 -10 -12 -6 -4 4 -2 14 5 23 19 23 3 32 -19 9 -45 -47 -111 -104
-120 -104 -6 0 -11 -4 -11 -10 0 -5 -5 -10 -11 -10 -6 0 -31 -17 -57 -39 -48
-39 -97 -60 -89 -38 2 7 28 29 58 49 30 21 68 50 84 65 94 86 155 133 169 133
9 0 16 3 16 8 0 4 12 15 27 24 24 14 26 18 11 23 -14 6 -5 17 45 56 34 27 66
49 71 49 5 0 18 7 28 17 10 9 28 21 40 27 12 6 23 17 26 25 3 10 1 11 -9 5
-14 -9 -562 -14 -553 -5 6 6 89 18 225 32 72 7 151 8 240 2 84 -6 139 -6 147
0 8 6 17 5 25 -2 11 -8 37 -1 113 31 174 73 265 101 264 81z m-933 -9 c-3 -3
-12 -4 -19 -1 -8 3 -5 6 6 6 11 1 17 -2 13 -5z m-924 -58 c50 -8 99 -17 107
-20 8 -3 64 -7 124 -10 85 -3 113 -8 122 -20 6 -9 16 -16 23 -16 6 0 11 -4 11
-10 0 -5 -22 -10 -50 -10 -27 0 -50 -4 -50 -9 0 -10 83 -21 166 -21 34 0 77
-3 95 -7 33 -7 33 -7 9 -14 -14 -4 -50 -8 -80 -9 -30 -1 -64 -5 -75 -10 -20
-9 -20 -9 2 -15 36 -11 17 -38 -23 -33 -24 3 -31 1 -23 -7 5 -5 33 -9 61 -8
l51 2 -22 -20 c-26 -24 -44 -22 -177 16 -192 55 -274 104 -274 163 0 14 -84
55 -137 66 -35 8 -48 20 -38 36 4 6 21 2 46 -10 21 -11 81 -27 132 -34z m817
44 c0 -5 -11 -10 -25 -10 -14 0 -25 5 -25 10 0 6 11 10 25 10 14 0 25 -4 25
-10z m-109 -35 c-33 -15 -90 -21 -78 -8 7 6 68 20 97 21 8 1 0 -5 -19 -13z
m1678 -26 c98 -12 161 -28 161 -41 0 -10 -8 -10 -89 3 -45 8 -74 8 -86 2 -14
-8 -9 -12 26 -19 l44 -8 -54 -4 c-29 -2 -67 2 -84 7 -62 22 -248 7 -352 -29
-27 -9 -25 -9 15 -5 101 11 295 16 282 7 -11 -7 -10 -10 3 -16 9 -3 28 -6 43
-6 31 0 92 -21 92 -32 0 -4 -19 -9 -42 -9 l-43 -2 38 -10 c20 -6 37 -14 37
-19 0 -4 -57 -8 -127 -8 -166 0 -337 -24 -367 -51 -6 -5 -16 -9 -23 -9 -14 0
-93 -33 -133 -56 -14 -8 -68 -35 -120 -60 -52 -26 -156 -76 -230 -113 -74 -36
-138 -67 -142 -69 -5 -2 -8 3 -8 11 0 8 8 18 18 22 16 6 16 7 -2 21 -16 11
-17 14 -4 14 9 0 18 -5 20 -12 3 -7 12 -9 24 -4 19 7 19 8 0 22 -11 7 -16 17
-13 21 4 4 13 1 19 -5 15 -15 38 -16 38 -2 0 6 -7 10 -15 10 -8 0 -15 3 -15 8
0 10 64 51 125 81 63 31 62 30 45 41 -12 8 -11 10 6 10 12 0 24 7 28 15 3 8
10 15 16 15 6 0 21 10 33 23 12 13 31 27 42 31 15 6 17 9 6 16 -10 6 -1 15 35
33 27 14 58 34 68 46 11 12 24 21 29 21 5 0 -2 -11 -18 -26 -15 -14 -24 -28
-21 -32 4 -3 10 -2 14 3 7 10 46 30 152 78 100 45 195 67 283 67 20 0 37 4 37
9 0 21 91 25 209 10z m-673 -48 c-5 -7 -133 -83 -216 -127 -19 -11 -37 -21
-40 -24 -3 -3 -21 -14 -40 -24 -19 -11 -63 -41 -98 -68 -35 -26 -67 -48 -73
-48 -19 0 -8 31 14 39 12 5 36 25 53 45 18 19 44 41 58 47 14 7 26 16 26 21 0
4 9 8 20 8 11 0 20 5 20 10 0 6 5 10 12 10 6 0 44 19 82 42 107 64 201 100
182 69z m-931 -31 c-11 -5 -27 -9 -35 -9 -9 0 -8 4 5 9 11 5 27 9 35 9 9 0 8
-4 -5 -9z m1020 -10 c-11 -5 -29 -9 -40 -9 l-20 0 20 9 c11 5 29 9 40 9 l20 0
-20 -9z m-1635 -150 c0 -5 -7 -10 -15 -10 -8 0 -15 5 -15 10 0 6 7 10 15 10 8
0 15 -4 15 -10z m325 -24 c18 -13 18 -14 -8 -9 -15 3 -30 9 -33 14 -8 14 20
10 41 -5z m-244 -10 c-9 -11 0 -13 50 -14 59 -1 119 -19 119 -36 0 -4 -10 -6
-22 -3 -13 3 -48 9 -78 12 -72 9 -146 35 -128 46 7 5 26 9 42 9 23 0 26 -3 17
-14z m838 -9 c-32 -25 -147 -100 -190 -125 -32 -18 -73 -51 -94 -73 -20 -22
-39 -38 -42 -35 -8 8 53 75 101 112 23 18 77 51 121 74 44 23 84 46 89 51 5 5
12 6 15 4 2 -3 2 -6 0 -8z m-509 -17 c0 -5 -6 -10 -14 -10 -8 0 -18 5 -21 10
-3 6 3 10 14 10 12 0 21 -4 21 -10z m580 -111 c-58 -50 -67 -41 -9 10 24 22
46 37 49 34 3 -3 -15 -22 -40 -44z m-103 -81 c-3 -8 -6 -5 -6 6 -1 11 2 17 5
13 3 -3 4 -12 1 -19z m953 -9 c168 -38 165 -37 295 -102 96 -47 186 -104 193
-119 2 -5 9 -8 15 -8 17 -1 84 -60 68 -60 -7 0 -39 15 -70 34 -31 18 -74 42
-96 52 -22 10 -69 35 -105 56 -35 21 -86 45 -112 54 -27 8 -48 20 -48 25 0 5
-15 9 -33 9 -18 0 -39 6 -45 12 -8 8 -38 12 -75 12 -36 -1 -54 2 -42 6 28 11
-378 11 -450 1 -62 -9 -80 -6 -56 9 53 32 442 45 561 19z m-790 -4 c0 -8 -4
-15 -10 -15 -5 0 -7 7 -4 15 4 8 8 15 10 15 2 0 4 -7 4 -15z m-14 -39 c19 -19
18 -30 -3 -22 -19 8 -83 -11 -83 -25 0 -5 -4 -9 -10 -9 -22 0 -8 18 23 31 17
7 36 19 40 26 10 17 15 16 33 -1z m-486 -30 c0 -2 -7 -7 -16 -10 -8 -3 -12 -2
-9 4 6 10 25 14 25 6z m1189 -16 c101 -9 163 -20 211 -38 8 -3 -7 -9 -35 -13
-45 -6 -135 -2 -415 18 l-95 7 85 22 c47 12 96 20 110 18 14 -2 76 -8 139 -14z
m-834 -30 c-3 -5 -10 -10 -16 -10 -5 0 -9 5 -9 10 0 6 7 10 16 10 8 0 12 -4 9
-10z m462 -6 c-3 -3 -12 -4 -19 -1 -8 3 -5 6 6 6 11 1 17 -2 13 -5z m648 -24
c7 -12 -2 -12 -30 0 -19 8 -19 9 2 9 12 1 25 -3 28 -9z m-1455 -24 c0 -3 -4
-8 -10 -11 -5 -3 -10 -1 -10 4 0 6 5 11 10 11 6 0 10 -2 10 -4z m-1370 -71
c89 -45 277 -58 405 -29 111 25 125 27 125 16 0 -5 -12 -12 -27 -15 -16 -3
-57 -13 -93 -22 -105 -27 -394 -25 -405 3 -7 20 -35 15 -29 -5 20 -61 81 -113
170 -144 21 -8 55 -22 74 -31 30 -15 32 -17 12 -18 -13 0 -31 4 -40 9 -9 4
-30 11 -47 15 -49 12 -17 -11 55 -39 52 -21 82 -25 169 -26 l106 -2 -75 -10
c-127 -17 -169 -13 -253 26 -107 50 -187 138 -187 207 0 9 -12 29 -26 43 -44
45 -6 57 66 22z m585 5 c-3 -5 -13 -10 -21 -10 -8 0 -14 5 -14 10 0 6 9 10 21
10 11 0 17 -4 14 -10z m675 -20 c0 -5 -5 -10 -11 -10 -5 0 -7 5 -4 10 3 6 8
10 11 10 2 0 4 -4 4 -10z m3062 -85 c198 -56 485 -261 616 -439 l37 -51 5 34
c4 28 7 31 16 20 21 -26 27 -61 13 -70 -11 -7 -10 -14 5 -41 11 -18 23 -35 26
-38 27 -20 160 -285 186 -369 30 -99 11 -92 -42 16 -21 43 -47 91 -58 108 -11
16 -21 35 -22 42 -1 7 -11 25 -21 40 -11 15 -23 36 -26 47 -4 10 -13 16 -22
13 -9 -4 -12 -1 -9 8 3 8 -6 33 -19 56 -22 37 -26 39 -29 19 -3 -21 -4 -21
-25 7 -12 17 -24 47 -27 67 -3 21 -13 45 -22 53 -13 14 -14 13 -8 -11 3 -14 3
-26 -2 -26 -13 0 -54 42 -54 56 0 7 -12 22 -27 34 -24 18 -25 20 -6 15 12 -3
24 -1 28 5 3 5 2 10 -4 10 -6 0 -24 14 -41 30 -17 17 -35 30 -41 30 -6 0 -7 5
-4 10 3 6 3 10 -2 10 -4 0 -21 13 -38 28 -43 40 -183 142 -195 142 -5 0 -10 3
-10 8 0 14 -157 72 -196 72 -13 0 -26 5 -29 10 -3 6 -17 10 -30 10 -13 0 -27
5 -30 10 -3 6 -12 10 -18 10 -8 0 -7 -3 2 -9 16 -10 6 -31 -15 -31 -8 0 -26 7
-39 16 -14 9 -31 14 -40 11 -8 -4 -17 -2 -20 3 -8 12 16 48 35 53 26 7 153 -4
202 -18z m-1732 -55 c-8 -5 -27 -10 -42 -10 -31 0 -113 -16 -183 -36 -62 -17
-139 -34 -185 -40 l-35 -5 30 14 c28 12 116 38 195 57 19 5 53 13 75 18 55 13
165 15 145 2z m1301 -61 c-10 -23 -10 -23 -10 7 -1 17 2 34 7 38 11 12 14 -18
3 -45z m499 -24 c8 -7 33 -22 55 -33 36 -18 58 -35 130 -100 11 -10 38 -31 60
-47 48 -34 128 -132 120 -145 -8 -13 -105 63 -213 168 -48 47 -121 107 -162
133 -66 44 -71 48 -40 43 19 -4 42 -12 50 -19z m-1756 6 c7 -10 -68 -26 -82
-17 -5 3 -35 -1 -66 -9 -31 -8 -65 -15 -75 -15 -10 0 -24 -7 -31 -15 -11 -13
-5 -15 48 -15 34 0 64 -4 67 -10 3 -5 19 -10 36 -10 68 0 17 -26 -91 -46 -41
-7 -150 -40 -200 -60 -19 -7 -98 -30 -175 -50 -241 -62 -235 -61 -235 -44 0 6
9 10 21 10 11 0 18 4 15 9 -4 5 13 16 36 24 l43 16 -50 -6 c-27 -3 -57 -11
-65 -18 -19 -16 -90 -27 -90 -14 0 5 8 13 18 16 9 4 19 10 22 13 3 4 38 24 78
45 39 20 74 40 77 45 3 4 25 11 50 14 24 4 47 11 50 17 4 5 13 9 20 9 8 0 43
13 77 29 40 18 90 31 138 36 49 5 68 10 55 15 -13 4 6 10 55 14 41 4 104 11
140 15 97 12 108 12 114 2z m-1955 -104 c-2 -1 -13 -9 -24 -17 -19 -14 -19
-14 -6 3 7 9 18 17 24 17 6 0 8 -1 6 -3z m110 -34 c-23 -30 -60 -63 -70 -63
-5 0 -18 -9 -29 -20 -19 -19 -50 -27 -50 -13 0 14 53 53 71 53 10 0 33 13 51
30 38 34 47 38 27 13z m4264 -52 c-10 -23 -21 -41 -25 -41 -5 0 -8 -9 -8 -19
0 -11 -4 -23 -10 -26 -6 -4 -10 5 -10 19 0 14 4 26 9 26 4 0 14 21 21 48 17
61 21 68 32 49 5 -10 2 -30 -9 -56z m-313 -41 c0 -5 -5 -10 -11 -10 -5 0 -7 5
-4 10 3 6 8 10 11 10 2 0 4 -4 4 -10z m-215 -124 c39 -33 86 -76 105 -96 19
-20 52 -49 73 -64 41 -31 48 -47 17 -39 -27 7 -25 -9 5 -57 52 -83 34 -70
-132 92 -12 12 -26 19 -29 15 -4 -4 -2 -7 4 -7 7 0 12 -6 12 -14 0 -8 9 -17
19 -21 11 -3 22 -14 25 -23 3 -10 22 -42 41 -72 46 -71 105 -194 105 -219 0
-11 4 -21 9 -23 4 -1 12 -14 16 -27 12 -41 -16 -19 -73 55 -30 38 -67 93 -84
122 -16 28 -33 52 -38 52 -4 0 -11 11 -14 25 -4 14 -21 40 -39 56 -19 18 -25
29 -14 25 29 -9 19 12 -28 60 -25 25 -45 52 -45 60 0 18 14 18 30 -1 12 -14
30 -12 30 4 0 5 -18 29 -41 55 -22 25 -36 46 -30 46 18 0 13 25 -9 45 -11 10
-20 22 -20 28 0 11 10 4 105 -77z m515 49 c0 -8 -4 -15 -10 -15 -5 0 -7 7 -4
15 4 8 8 15 10 15 2 0 4 -7 4 -15z m10 -89 c0 -11 -19 -15 -25 -6 -3 5 1 10 9
10 9 0 16 -2 16 -4z m-590 -26 c0 -5 -4 -10 -9 -10 -6 0 -13 5 -16 10 -3 6 1
10 9 10 9 0 16 -4 16 -10z m597 -12 c-3 -8 -6 -5 -6 6 -1 11 2 17 5 13 3 -3 4
-12 1 -19z m83 -38 c0 -5 -5 -10 -11 -10 -5 0 -7 5 -4 10 3 6 8 10 11 10 2 0
4 -4 4 -10z m-5560 -15 c180 -20 321 -72 227 -83 -15 -2 -27 -8 -27 -14 0 -7
-5 -6 -15 2 -8 6 -22 10 -32 7 -15 -4 -14 -5 3 -6 12 0 24 -8 28 -16 3 -8 17
-15 31 -15 14 0 25 -4 25 -10 0 -5 -5 -10 -12 -10 -14 0 -77 19 -100 31 -22
11 -48 12 -48 2 0 -10 35 -27 120 -60 86 -33 211 -53 338 -53 61 0 102 -4 102
-10 0 -10 -153 -17 -260 -11 -91 4 -282 63 -318 98 -7 7 -25 20 -40 28 -15 9
-40 34 -56 56 -16 21 -38 41 -48 45 -27 8 -23 37 5 31 12 -3 47 -9 77 -12z
m5430 -36 c0 -5 -4 -9 -10 -9 -5 0 -10 7 -10 16 0 8 5 12 10 9 6 -3 10 -10 10
-16z m-1900 -131 c0 -4 -12 -10 -27 -13 -16 -3 -44 -10 -64 -15 -20 -6 -69
-10 -110 -10 -87 0 -83 15 9 32 34 6 62 16 62 23 0 7 19 8 65 1 36 -6 65 -14
65 -18z m553 -84 c16 -21 19 -47 20 -172 2 -131 0 -154 -21 -209 -55 -147
-181 -311 -275 -358 -60 -29 -124 -81 -114 -91 11 -11 136 35 183 67 52 36
133 125 163 181 60 109 78 148 101 213 22 62 24 85 23 193 -2 92 1 122 10 119
7 -2 15 -17 18 -33 5 -22 7 -24 8 -7 0 12 -4 33 -10 47 -7 14 -9 32 -5 42 6
15 9 15 31 -6 14 -13 25 -29 25 -37 0 -7 9 -13 20 -13 14 0 20 -7 20 -22 0
-17 3 -19 9 -9 20 31 32 -2 30 -80 -1 -44 3 -84 9 -91 6 -7 14 -26 17 -41 4
-16 13 -31 20 -33 13 -5 19 -104 6 -104 -11 0 -85 109 -101 149 -20 51 -30 61
-30 28 0 -15 5 -27 10 -27 6 0 10 -7 10 -15 0 -14 18 -53 30 -65 3 -3 11 -16
18 -31 7 -14 26 -39 43 -57 16 -17 29 -36 29 -41 0 -6 5 -11 10 -11 6 0 10 -9
10 -20 0 -11 -4 -20 -10 -20 -5 0 -10 -7 -10 -15 0 -8 5 -15 11 -15 6 0 8 -8
5 -17 -9 -30 -16 -79 -10 -65 9 19 34 14 34 -8 0 -11 -4 -20 -10 -20 -13 0
-13 -31 0 -117 39 -274 44 -349 24 -387 -18 -36 -18 -45 -1 -21 18 23 37 11
37 -23 0 -15 7 -40 15 -55 9 -17 12 -40 8 -60 l-6 -32 22 22 c17 18 21 34 21
85 0 35 4 58 9 53 4 -6 27 -77 51 -160 50 -174 85 -278 134 -391 90 -211 132
-571 86 -744 -7 -29 -31 -128 -56 -235 -14 -61 -34 -195 -45 -302 -7 -68 -16
-123 -21 -123 -4 0 -8 -12 -8 -27 0 -19 -3 -24 -11 -16 -7 7 -5 47 6 134 10
72 14 151 11 189 -4 36 -2 114 2 174 8 94 7 112 -7 128 -9 10 -18 28 -21 41
-4 13 -15 23 -28 25 -19 3 -26 -4 -39 -36 -8 -22 -24 -42 -34 -45 -11 -3 -19
-13 -19 -23 0 -9 -7 -26 -17 -36 -9 -10 -11 -18 -6 -18 14 0 25 -29 17 -42 -4
-6 -9 -6 -14 2 -12 19 -30 2 -30 -29 0 -15 -9 -36 -20 -46 -12 -10 -18 -25
-16 -32 3 -8 -2 -13 -14 -13 -23 0 -26 -25 -8 -64 9 -21 8 -29 -6 -45 -9 -10
-14 -25 -10 -35 4 -10 1 -16 -7 -16 -10 -1 -8 -5 5 -15 10 -7 15 -19 11 -25
-4 -6 -1 -33 6 -61 11 -41 11 -52 0 -58 -9 -6 -10 -11 -2 -15 7 -5 6 -15 -5
-31 -11 -16 -15 -40 -12 -70 2 -25 0 -45 -4 -45 -5 0 -8 -10 -8 -21 0 -18 -5
-20 -26 -16 -22 4 -25 2 -21 -17 20 -84 20 -88 0 -84 -26 5 -46 -23 -26 -37
10 -7 12 -19 8 -38 -9 -33 -16 -34 -41 -6 -17 19 -19 35 -16 160 3 137 3 140
-28 203 -32 67 -111 156 -140 156 -9 0 -27 12 -41 26 -13 14 -39 35 -57 46
-28 17 -38 19 -59 9 -19 -9 -29 -9 -39 0 -16 13 -64 -2 -64 -20 0 -19 19 -21
29 -4 6 10 10 14 11 8 0 -20 -16 -33 -39 -31 -27 1 -54 36 -33 43 17 6 15 23
-3 23 -8 0 -15 -7 -15 -16 0 -8 -4 -13 -9 -9 -6 3 -15 -3 -21 -12 -8 -15 -9
-13 -4 10 7 32 -11 37 -19 5 l-6 -22 -24 22 c-23 21 -47 29 -47 15 0 -4 12
-19 27 -35 14 -15 24 -30 21 -33 -11 -11 -77 66 -71 83 3 11 2 13 -4 6 -4 -6
-17 -14 -28 -18 -11 -4 -16 -4 -12 0 13 13 -15 34 -44 34 -16 0 -29 4 -29 8 0
5 -11 14 -24 20 -24 11 -24 10 -14 -21 6 -18 15 -38 21 -45 5 -7 8 -14 5 -17
-2 -2 -26 25 -53 60 -40 53 -54 65 -77 65 -20 0 -28 -5 -28 -17 0 -14 -3 -14
-12 -5 -9 9 -10 15 -2 20 6 4 27 40 47 81 31 62 37 83 36 135 -1 33 -3 54 -6
45 -3 -14 -16 -16 -73 -14 -74 3 -90 8 -90 31 0 9 -6 22 -14 30 -23 23 -148 8
-218 -26 -53 -26 -63 -28 -172 -26 -64 2 -119 6 -123 9 -3 4 -16 7 -28 7 -13
0 -28 6 -34 14 -7 8 -24 17 -39 21 -15 3 -37 18 -48 33 -16 20 -25 24 -35 16
-8 -6 -36 -19 -62 -28 -27 -10 -46 -21 -43 -24 12 -11 -18 -32 -46 -32 -42 0
-60 22 -58 73 3 59 2 63 -12 49 -17 -17 -48 -121 -48 -165 0 -43 28 -166 43
-184 15 -20 0 -58 -28 -71 -14 -6 -25 -19 -25 -27 0 -9 -5 -13 -11 -10 -6 4
-33 -17 -60 -46 -51 -55 -76 -62 -40 -11 22 32 28 58 11 47 -6 -4 -8 -11 -5
-16 4 -5 1 -9 -5 -9 -6 0 -22 -11 -36 -25 -28 -28 -44 -32 -44 -10 0 21 -10
19 -38 -7 l-24 -23 6 23 c10 29 -2 28 -37 -5 l-28 -28 11 29 c14 39 7 42 -23
12 -15 -14 -31 -26 -37 -26 -15 0 -12 7 11 29 12 11 16 21 10 25 -5 4 -12 2
-16 -4 -3 -5 -17 -10 -30 -10 -57 0 -149 -51 -213 -119 -39 -41 -98 -158 -112
-221 -5 -25 -12 -58 -16 -75 -11 -53 -28 -85 -46 -85 -9 0 -24 -10 -32 -22
-13 -18 -16 -19 -16 -5 0 10 -8 17 -20 17 -28 0 -25 18 4 26 28 7 41 31 26 49
-6 7 -13 28 -15 46 -2 19 -13 41 -23 49 -17 14 -19 31 -21 157 0 88 3 144 9
148 6 4 10 43 8 97 -2 80 -5 91 -22 98 -14 5 -24 24 -33 61 -8 30 -17 67 -21
83 -4 16 -13 31 -19 33 -7 3 -9 -4 -6 -16 4 -16 1 -21 -15 -21 -18 0 -37 24
-34 43 1 4 -3 7 -8 7 -6 0 -21 12 -34 27 -21 24 -26 26 -40 13 -10 -7 -16 -25
-15 -39 3 -36 -11 -81 -25 -81 -13 0 -19 -77 -6 -85 5 -3 7 -11 4 -18 -2 -7
-5 -51 -7 -97 -1 -64 1 -84 11 -83 16 4 16 -16 0 -22 -8 -3 -14 -30 -16 -73
-1 -50 1 -63 9 -52 8 12 9 9 3 -10 -11 -38 -6 -127 8 -149 9 -15 9 -25 0 -46
-7 -15 -10 -31 -7 -36 9 -14 35 -118 35 -139 0 -11 -4 -20 -10 -20 -5 0 -10 7
-10 15 0 8 -4 23 -10 33 -9 15 -17 45 -51 187 -26 110 -33 156 -34 225 -1 41
-7 125 -14 185 -6 61 -16 151 -21 200 -6 50 -14 101 -19 115 -16 45 -30 133
-46 275 -14 132 -13 147 4 245 24 128 25 131 98 305 33 77 83 203 113 280 30
77 65 152 78 167 13 14 24 29 23 32 -3 19 1 25 14 20 8 -4 15 -1 15 5 0 6 39
52 87 102 100 104 122 116 333 186 138 46 323 129 340 153 3 4 23 19 45 34 91
61 145 105 277 229 16 15 38 27 49 27 11 0 32 6 47 14 15 7 45 17 66 20 37 7
75 22 172 67 23 10 45 19 49 19 4 0 19 8 33 18 15 10 52 29 82 42 30 13 63 30
72 38 19 15 125 75 170 94 15 7 29 20 31 30 3 10 14 18 26 18 12 0 21 5 21 10
0 6 -7 10 -16 10 -8 0 -12 5 -9 10 4 6 11 7 17 4 6 -4 28 -11 47 -15 20 -4 72
-17 116 -28 78 -20 192 -29 168 -13 -9 5 -1 12 24 21 20 8 46 22 57 33 12 11
42 31 69 45 26 15 47 30 47 35 0 4 5 8 11 8 6 0 1 -13 -11 -29 -29 -42 -8 -49
42 -15 l40 28 18 -24 18 -23 13 21 c8 12 18 22 23 22 5 0 17 6 25 13 24 20 99
39 123 31 16 -5 20 -3 15 9 -9 23 15 11 36 -19z m77 -26 c0 -16 -3 -19 -11
-11 -6 6 -8 16 -5 22 11 17 16 13 16 -11z m-667 -10 c10 -5 16 -12 13 -15 -3
-3 -12 -1 -20 6 -10 8 -26 9 -57 2 -27 -6 -49 -6 -60 0 -10 5 -29 9 -43 9 -14
0 -28 5 -32 11 -8 13 171 2 199 -13z m137 -6 c0 -10 -99 -52 -122 -52 -9 0
-20 -4 -23 -10 -3 -5 -15 -10 -27 -10 -36 0 -208 44 -208 54 0 5 29 6 68 2
202 -19 218 -18 253 3 35 22 59 27 59 13z m-3012 -47 c14 -5 16 -31 2 -40 -6
-3 -17 1 -26 9 -8 9 -33 20 -55 26 -22 6 -37 15 -34 19 4 8 80 -2 113 -14z
m7352 12 c0 -1 -34 -36 -75 -76 -41 -41 -75 -70 -75 -64 0 12 129 143 141 143
5 0 9 -1 9 -3z m-7394 -110 c-40 -29 -115 -191 -131 -280 -6 -37 -5 -38 17
-32 13 4 30 13 38 20 37 30 45 30 26 0 -10 -17 -28 -41 -40 -55 -12 -14 -27
-37 -34 -52 -6 -15 -21 -29 -34 -32 -74 -15 -89 -15 -94 -2 -3 8 14 57 39 108
25 51 64 136 87 188 47 104 69 138 103 155 36 19 54 5 23 -18z m7209 -77 c-16
-17 -33 -30 -39 -30 -5 0 5 15 24 34 42 42 55 38 15 -4z m-3428 -2 c-3 -8 -6
-5 -6 6 -1 11 2 17 5 13 3 -3 4 -12 1 -19z m-3719 -75 c-13 -16 -38 -17 -38
-2 0 7 8 18 17 25 22 15 38 -3 21 -23z m-2548 -95 c0 -6 -7 -5 -15 2 -8 7 -15
17 -15 22 0 6 7 5 15 -2 8 -7 15 -17 15 -22z m80 22 c0 -5 -7 -10 -16 -10 -8
0 -12 5 -9 10 3 6 10 10 16 10 5 0 9 -4 9 -10z m70 0 c0 -5 -2 -10 -4 -10 -3
0 -8 5 -11 10 -3 6 -1 10 4 10 6 0 11 -4 11 -10z m-50 -45 c-7 -8 -17 -12 -23
-8 -6 4 -3 9 9 14 27 11 28 11 14 -6z m-65 -5 c-3 -5 -10 -10 -16 -10 -5 0 -9
5 -9 10 0 6 7 10 16 10 8 0 12 -4 9 -10z m21 -38 c10 -6 27 -42 20 -42 -1 0
-13 11 -26 25 -22 23 -18 34 6 17z m94 -129 c11 -10 20 -21 20 -26 0 -4 5 -13
10 -20 47 -56 60 -74 60 -84 0 -7 7 -13 15 -13 8 0 15 -5 15 -10 0 -7 -6 -7
-20 0 -11 6 -20 15 -20 20 0 8 -22 37 -60 79 -21 23 -52 71 -45 71 2 0 14 -8
25 -17z m50 7 c0 -5 -4 -10 -10 -10 -5 0 -10 5 -10 10 0 6 5 10 10 10 6 0 10
-4 10 -10z m2188 -70 c4 -56 -15 -168 -33 -197 -11 -16 -12 -23 -2 -26 9 -4 9
-7 0 -14 -6 -5 -29 -23 -50 -40 -78 -65 -296 -189 -313 -178 -18 11 -10 21 25
34 36 13 44 28 24 48 -8 8 -8 13 1 18 7 4 13 -1 17 -13 3 -11 11 -23 18 -26
18 -6 163 102 201 150 57 73 87 172 79 259 -2 29 0 36 13 33 12 -2 18 -16 20
-48z m-186 -5 c4 -16 1 -25 -8 -25 -17 0 -25 15 -18 34 9 24 21 19 26 -9z
m5508 -31 c0 -34 -4 -53 -10 -49 -16 10 -10 105 6 105 2 0 4 -25 4 -56z
m-7837 -97 c-3 -29 -7 -54 -9 -56 -2 -2 -15 -1 -29 3 -26 7 -35 26 -11 26 16
0 26 21 26 54 0 25 9 38 21 30 4 -2 5 -28 2 -57z m446 54 c7 -5 12 -13 10 -18
-2 -5 -12 -1 -21 9 -19 19 -13 24 11 9z m-402 -77 c-9 -9 -28 6 -21 18 4 6 10
6 17 -1 6 -6 8 -13 4 -17z m-59 -85 c-7 -5 -22 -8 -33 -7 -18 1 -18 1 2 5 12
2 25 14 29 26 7 20 8 20 12 3 2 -10 -2 -22 -10 -27z m62 31 c0 -5 -2 -10 -4
-10 -3 0 -8 5 -11 10 -3 6 -1 10 4 10 6 0 11 -4 11 -10z m110 -78 c0 -14 -11
-21 -26 -15 -21 8 -17 23 6 23 11 0 20 -4 20 -8z m1917 -14 c-3 -8 -6 -5 -6 6
-1 11 2 17 5 13 3 -3 4 -12 1 -19z m-87 -14 c0 -14 -4 -23 -10 -19 -5 3 -10
15 -10 26 0 10 5 19 10 19 6 0 10 -12 10 -26z m50 16 c0 -5 -4 -10 -10 -10 -5
0 -10 5 -10 10 0 6 5 10 10 10 6 0 10 -4 10 -10z m-1845 -10 c3 -5 -1 -10 -10
-10 -9 0 -13 5 -10 10 3 6 8 10 10 10 2 0 7 -4 10 -10z m2454 -54 c-9 -8 -200
-86 -260 -106 -35 -12 -74 -27 -88 -34 l-24 -13 25 -6 c28 -7 79 -100 117
-210 11 -32 33 -79 48 -105 34 -55 83 -167 83 -188 0 -8 4 -14 8 -14 16 0 34
-97 23 -119 -14 -25 -14 -41 -1 -41 6 0 10 7 10 15 0 8 4 15 9 15 4 0 12 -32
15 -70 4 -39 14 -82 22 -98 7 -15 14 -32 14 -39 0 -7 7 -28 16 -47 19 -38 13
-69 -11 -60 -9 4 -15 19 -15 41 0 36 -26 103 -41 103 -4 0 -11 -4 -14 -10 -3
-5 1 -10 9 -10 11 0 16 -9 16 -30 0 -22 -4 -28 -15 -24 -11 5 -15 -1 -15 -19
0 -14 5 -29 10 -32 6 -3 10 -15 10 -26 0 -35 27 -52 80 -50 50 1 64 -7 55 -31
-4 -9 -18 -12 -45 -10 -26 3 -45 -1 -55 -11 -17 -18 -20 -37 -5 -37 6 0 10
-11 10 -25 0 -18 5 -25 20 -25 36 0 46 -52 26 -140 -6 -24 -6 -24 4 2 13 32
27 38 58 27 19 -7 21 -12 12 -29 -6 -12 -21 -20 -35 -20 -26 0 -29 -7 -19 -34
6 -15 8 -15 19 1 13 17 14 17 32 0 31 -27 43 -21 43 23 0 59 26 53 34 -7 9
-66 30 -124 51 -139 11 -8 15 -20 11 -30 -4 -11 1 -24 14 -37 12 -10 19 -26
16 -34 -4 -8 3 -35 14 -60 11 -25 20 -65 20 -90 0 -28 5 -46 14 -49 8 -3 17
-27 21 -55 4 -27 14 -57 23 -66 10 -9 17 -31 18 -48 1 -18 4 -44 8 -58 5 -20
3 -27 -8 -27 -9 0 -12 -7 -9 -20 3 -11 9 -20 13 -20 14 0 40 30 40 46 0 8 5
12 11 8 8 -4 8 -9 0 -17 -16 -16 -13 -37 4 -37 9 0 15 -9 14 -22 l0 -23 -16
23 c-21 30 -31 28 -45 -8 -13 -31 -13 -30 -72 107 -114 265 -153 353 -171 383
-8 14 -44 86 -80 160 -36 74 -70 142 -75 150 -33 57 -346 701 -403 830 -8 19
-31 69 -50 110 -19 41 -38 86 -42 100 -4 14 -14 34 -21 45 -8 11 -14 32 -14
46 0 15 -4 29 -9 31 -5 2 -13 15 -16 31 -5 20 -4 27 8 27 8 0 17 -9 20 -20 8
-31 39 -14 35 19 -3 24 -7 26 -48 27 -25 1 -49 2 -54 3 -16 2 28 30 47 31 16
0 54 14 142 50 11 5 63 23 115 40 52 17 104 35 115 39 79 34 124 49 149 50 16
1 27 -1 25 -3z m-572 -42 c14 -14 23 -28 20 -31 -6 -5 -57 41 -57 52 0 11 12
4 37 -21z m-1466 -2 c-7 -2 -18 1 -23 6 -8 8 -4 9 13 5 13 -4 18 -8 10 -11z
m1529 -2 c0 -5 -2 -10 -4 -10 -3 0 -8 5 -11 10 -3 6 -1 10 4 10 6 0 11 -4 11
-10z m-1502 -38 c2 -12 7 -22 11 -22 14 0 61 -46 61 -60 0 -9 7 -7 23 8 18 17
30 20 60 15 40 -6 45 -14 22 -37 -25 -24 -18 -42 8 -19 49 45 134 71 91 28
-13 -13 -15 -20 -6 -23 7 -2 10 -7 7 -12 -3 -4 2 -13 10 -20 8 -7 15 -25 15
-41 0 -15 5 -31 11 -35 7 -4 9 -22 6 -43 -3 -20 -3 -30 0 -23 2 6 16 12 29 12
27 0 32 15 9 24 -16 6 -21 46 -5 46 5 0 17 -11 26 -24 13 -20 20 -23 39 -16
25 10 65 3 65 -11 0 -5 13 -23 29 -39 15 -17 44 -49 62 -71 19 -23 48 -56 66
-74 17 -18 42 -50 56 -72 14 -22 38 -53 54 -70 63 -70 74 -86 61 -95 -9 -5 -6
-8 8 -8 14 0 24 -8 27 -22 9 -32 0 -34 -22 -7 -17 20 -20 21 -21 7 0 -10 5
-18 10 -18 6 0 10 -7 10 -15 0 -25 -53 -19 -65 8 -6 12 -18 21 -28 21 -19 -2
-33 36 -23 62 4 11 -1 18 -14 21 -11 3 -21 9 -21 14 -1 5 -2 13 -3 18 -2 19
-17 25 -26 11 -7 -12 -14 -11 -44 5 -20 11 -36 25 -36 31 0 19 -34 43 -55 39
-11 -2 -23 -4 -27 -4 -13 -1 -9 -15 12 -41 11 -14 19 -18 17 -10 -2 8 1 5 7
-7 5 -13 13 -23 18 -23 4 0 5 -6 2 -14 -4 -10 2 -16 18 -18 13 -2 23 -10 23
-18 0 -8 -5 -14 -12 -13 -6 2 -15 -6 -18 -17 -4 -11 -11 -20 -16 -20 -12 0
-12 17 1 25 15 10 12 35 -5 35 -8 0 -15 -4 -15 -10 0 -5 -7 -10 -15 -10 -8 0
-15 4 -15 9 0 5 -44 55 -99 112 -54 57 -125 136 -157 174 -60 70 -174 235
-174 251 0 4 -18 34 -40 65 -42 61 -48 73 -27 67 6 -3 13 -14 15 -26z m142
-13 c0 -10 -7 -19 -15 -19 -15 0 -21 31 -9 43 11 10 24 -3 24 -24z m120 10 c0
-6 -4 -7 -10 -4 -5 3 -10 11 -10 16 0 6 5 7 10 4 6 -3 10 -11 10 -16z m1192
-14 c0 -5 -5 -11 -11 -13 -6 -2 -11 4 -11 13 0 9 5 15 11 13 6 -2 11 -8 11
-13z m-1229 -1 c9 -10 -4 -34 -19 -34 -8 0 -14 9 -14 20 0 19 19 27 33 14z
m1197 -4 c0 -5 -4 -10 -10 -10 -5 0 -10 5 -10 10 0 6 5 10 10 10 6 0 10 -4 10
-10z m480 -331 c0 -11 -4 -18 -10 -14 -5 3 -7 12 -3 20 7 21 13 19 13 -6z m34
-101 c3 -13 6 -30 6 -37 0 -23 -16 0 -24 32 -8 32 9 37 18 5z m-1729 -88 c3
-5 2 -10 -4 -10 -5 0 -13 5 -16 10 -3 6 -2 10 4 10 5 0 13 -4 16 -10z m8915
-28 c0 -4 -6 -14 -12 -21 -10 -11 -10 -14 0 -18 6 -3 12 -11 12 -19 0 -12 -4
-12 -19 -2 -17 10 -23 9 -41 -7 -36 -33 -31 -10 8 33 36 40 52 51 52 34z m272
-34 c-9 -9 -15 -9 -24 0 -9 9 -7 12 12 12 19 0 21 -3 12 -12z m-9087 -46 c-7
-7 -45 29 -45 41 0 6 11 0 25 -13 14 -13 23 -26 20 -28z m-384 15 c-10 -9 -11
-8 -5 6 3 10 9 15 12 12 3 -3 0 -11 -7 -18z m2116 1 c-3 -8 -6 -5 -6 6 -1 11
2 17 5 13 3 -3 4 -12 1 -19z m-2072 -38 c-9 -14 -25 5 -25 30 0 12 3 12 16 -2
9 -9 13 -21 9 -28z m660 -6 c-12 -13 -19 -14 -28 -5 -8 8 -7 11 5 11 9 0 19
10 23 23 6 19 8 19 12 5 2 -10 -3 -25 -12 -34z m-185 -84 c3 -3 25 -21 50 -40
25 -19 47 -37 50 -40 3 -3 21 -18 40 -34 64 -52 180 -160 180 -167 0 -7 -87
46 -117 71 -7 6 -19 10 -27 10 -8 0 -16 4 -18 9 -1 4 -34 24 -73 43 -116 59
-155 81 -155 90 0 17 61 12 72 -5 4 -7 8 -7 8 -2 -1 6 -30 42 -65 80 -36 39
-65 76 -65 84 0 11 82 -57 120 -99z m8576 73 c-10 -10 -19 5 -10 18 6 11 8 11
12 0 2 -7 1 -15 -2 -18z m94 17 c13 -8 13 -10 -2 -10 -9 0 -20 5 -23 10 -8 13
5 13 25 0z m-9110 -38 c0 -15 -2 -15 -10 -2 -13 20 -13 33 0 25 6 -3 10 -14
10 -23z m8980 11 c0 -5 -9 -19 -20 -33 -24 -32 -38 -19 -13 14 18 25 33 33 33
19z m-8400 -24 c0 -5 -7 -9 -15 -9 -15 0 -20 12 -9 23 8 8 24 -1 24 -14z m60
1 c0 -5 -5 -10 -11 -10 -5 0 -7 5 -4 10 3 6 8 10 11 10 2 0 4 -4 4 -10z m-34
-29 c-4 -5 -3 -11 2 -13 14 -6 53 -68 43 -68 -6 0 -11 4 -11 10 0 5 -13 22
-30 36 -28 25 -32 44 -9 44 6 0 8 -4 5 -9z m-536 -36 c11 -13 10 -14 -4 -9 -9
3 -16 10 -16 15 0 13 6 11 20 -6z m2022 -82 c0 -27 0 -59 -2 -73 -2 -14 -4
-39 -4 -57 -1 -30 -16 -37 -16 -7 0 8 -6 14 -14 14 -16 0 -13 70 6 133 15 51
28 47 30 -10z m-1392 7 c0 -5 -4 -10 -10 -10 -5 0 -10 5 -10 10 0 6 5 10 10
10 6 0 10 -4 10 -10z m1625 -107 c-23 -34 -29 -23 -15 29 20 70 24 75 28 35 2
-24 -3 -48 -13 -64z m6433 64 c-14 -12 -28 -29 -31 -37 -4 -11 -6 -10 -6 3 -1
19 35 56 54 57 6 0 -2 -10 -17 -23z m-6467 -216 c-6 -11 -11 -29 -11 -40 0
-12 -4 -21 -10 -21 -13 0 -12 42 1 100 15 71 23 79 27 28 2 -26 -2 -56 -7 -67z
m6335 73 c-9 -8 -16 -20 -16 -25 0 -5 -6 -9 -13 -9 -7 0 -18 -9 -25 -20 -7
-12 -25 -25 -39 -31 -19 -7 -23 -13 -15 -18 9 -6 7 -12 -8 -26 -23 -21 -26
-41 -7 -48 6 -3 3 -5 -9 -4 -15 1 -20 6 -16 19 7 28 -4 22 -58 -33 -28 -29
-54 -48 -58 -45 -4 4 1 12 11 17 9 6 17 14 17 18 0 10 169 181 179 181 3 0 19
14 36 31 16 17 31 26 33 20 2 -6 -4 -18 -12 -27z m-6284 -89 c-3 -27 -11 -59
-18 -70 -20 -32 -28 -130 -14 -183 7 -26 31 -87 55 -137 39 -83 80 -238 68
-258 -9 -16 -32 15 -49 66 -18 57 -28 80 -73 179 -16 36 -33 79 -36 95 -4 15
-13 45 -21 66 -19 52 -19 127 1 127 8 0 15 7 15 15 0 8 4 23 9 33 8 15 24 71
47 157 l8 30 6 -35 c4 -19 4 -57 2 -85z m6263 -5 c3 -5 1 -10 -4 -10 -6 0 -11
5 -11 10 0 6 2 10 4 10 3 0 8 -4 11 -10z m-6485 -29 c0 -24 -22 -40 -28 -22
-4 11 -6 11 -13 0 -6 -11 -11 -11 -20 -2 -19 19 -3 43 31 43 23 0 30 -4 30
-19z m4244 -74 c19 -80 21 -255 5 -306 -25 -77 -63 -152 -69 -135 -7 19 10 94
21 94 13 0 21 125 11 165 -6 22 -14 68 -17 103 -5 51 -3 63 9 68 11 4 16 19
16 47 0 53 5 46 24 -36z m-4123 16 c-12 -20 -14 -14 -5 12 4 9 9 14 11 11 3
-2 0 -13 -6 -23z m-99 -32 c-4 -42 -18 -55 -24 -23 -5 21 11 74 21 68 4 -3 5
-23 3 -45z m-55 -43 c-3 -8 -6 -5 -6 6 -1 11 2 17 5 13 3 -3 4 -12 1 -19z
m6218 -44 c-9 -9 -18 -14 -21 -11 -3 3 3 14 13 24 10 10 19 15 21 11 2 -4 -4
-15 -13 -24z m-85 -98 c0 -3 -4 -8 -10 -11 -5 -3 -10 -1 -10 4 0 6 5 11 10 11
6 0 10 -2 10 -4z m-90 -96 c0 -5 -7 -10 -15 -10 -8 0 -15 5 -15 10 0 6 7 10
15 10 8 0 15 -4 15 -10z m-5390 -36 c0 -8 -4 -14 -10 -14 -5 0 -10 9 -10 21 0
11 5 17 10 14 6 -3 10 -13 10 -21z m3540 -82 c0 -14 -31 -52 -42 -52 -6 0 -4
8 5 18 10 10 17 24 17 30 0 7 5 12 10 12 6 0 10 -3 10 -8z m1633 -49 c-7 -2
-13 -10 -13 -16 0 -7 -16 -25 -35 -40 -19 -15 -35 -23 -35 -17 0 16 63 79 80
79 10 -1 11 -2 3 -6z m55 -11 c6 -18 -15 -14 -22 4 -4 10 -1 14 6 12 6 -2 14
-10 16 -16z m-3108 -89 c0 -7 5 -13 10 -13 6 0 10 -7 10 -15 0 -8 -4 -15 -10
-15 -5 0 -10 5 -10 11 0 6 -20 34 -45 61 -25 28 -42 54 -39 59 7 11 84 -70 84
-88z m1777 75 c-3 -8 -6 -5 -6 6 -1 11 2 17 5 13 3 -3 4 -12 1 -19z m1380 7
c0 -8 -4 -15 -9 -15 -4 0 -8 7 -8 15 0 8 4 15 8 15 5 0 9 -7 9 -15z m-1401
-47 c-4 -18 -11 -34 -16 -36 -6 -2 -10 -17 -10 -33 0 -16 -4 -29 -10 -29 -16
0 -12 49 7 92 21 47 38 50 29 6z m-358 -7 c-7 -12 -16 -21 -21 -21 -8 0 0 17
18 36 16 18 18 8 3 -15z m418 3 c-2 -14 -10 -33 -19 -42 -16 -15 -17 -15 -17
6 0 12 5 22 10 22 6 0 10 9 10 20 0 11 4 20 9 20 5 0 8 -11 7 -26z m1251 -3
c0 -11 -4 -18 -8 -15 -4 2 -16 -8 -27 -22 -12 -18 -21 -23 -26 -16 -4 7 7 25
24 42 36 35 39 36 37 11z m1293 0 c0 -14 -133 -116 -211 -161 -41 -24 -126
-75 -189 -115 -63 -40 -128 -79 -145 -88 -16 -8 -41 -25 -55 -37 -21 -18 -168
-109 -295 -182 -90 -52 -288 -148 -304 -148 -10 0 -30 -9 -44 -20 -14 -11 -30
-20 -37 -20 -6 0 -85 -36 -176 -80 -90 -44 -169 -80 -174 -80 -6 0 -10 -4 -10
-10 0 -5 -7 -10 -15 -10 -27 0 -16 15 23 32 20 8 121 73 224 142 104 69 190
126 193 126 5 0 146 101 155 111 3 3 50 36 105 74 55 38 134 92 176 122 42 29
79 53 82 53 3 0 46 27 95 60 50 33 95 60 100 60 5 0 17 9 27 20 10 11 23 20
30 20 7 0 20 9 30 20 10 11 21 20 25 20 4 0 34 16 66 36 58 35 61 36 139 30
62 -4 91 -1 130 13 28 10 51 19 53 20 1 0 2 -3 2 -8z m-2503 -33 c-3 -8 -6 -5
-6 6 -1 11 2 17 5 13 3 -3 4 -12 1 -19z m1093 13 c0 -15 -45 -61 -59 -61 -7 0
-9 -5 -6 -10 9 -14 -13 -40 -42 -51 -15 -5 -21 -15 -18 -28 3 -14 -4 -22 -26
-30 -28 -10 -41 -41 -16 -41 6 0 0 -8 -15 -18 -16 -9 -28 -21 -28 -27 0 -14
-53 -65 -67 -65 -15 0 -24 -26 -16 -46 5 -13 2 -15 -15 -10 -21 7 -72 -30 -72
-53 0 -6 -4 -11 -10 -11 -18 0 -62 -53 -57 -70 3 -12 0 -16 -12 -13 -22 5 -68
-87 -49 -99 9 -5 10 -8 1 -8 -6 0 -15 5 -18 10 -9 15 -35 12 -35 -5 0 -8 -9
-19 -20 -25 -11 -6 -20 -19 -20 -30 0 -24 -12 -31 -30 -19 -12 7 -11 9 5 9 15
0 17 2 6 9 -7 5 -10 14 -7 20 4 6 12 9 17 6 5 -4 9 3 9 14 0 12 5 21 10 21 6
0 10 6 10 13 0 6 17 31 38 53 20 23 65 73 99 110 34 38 82 89 107 114 25 25
45 48 46 52 0 4 48 58 108 119 59 62 121 127 137 145 31 33 45 41 45 25z m41
-86 c-3 -5 -7 -2 -9 7 -2 10 -9 15 -17 12 -8 -3 -11 -12 -9 -19 3 -7 1 -16 -4
-19 -22 -13 -21 27 0 48 23 21 23 21 34 1 6 -11 8 -24 5 -30z m-4611 36 c0 -6
-4 -13 -10 -16 -5 -3 -10 1 -10 9 0 9 5 16 10 16 6 0 10 -4 10 -9z m3380 -11
c0 -5 -4 -10 -10 -10 -5 0 -10 5 -10 10 0 6 5 10 10 10 6 0 10 -4 10 -10z m-8
-38 c14 -16 -5 -32 -39 -32 -14 0 -25 -9 -31 -27 l-10 -28 -1 26 c-2 42 21 79
47 76 13 -1 28 -8 34 -15z m1192 -37 c8 -8 19 -15 25 -15 6 0 11 -7 11 -15 0
-8 -9 -15 -20 -15 -13 0 -18 5 -14 15 5 11 -1 15 -25 15 -31 0 -42 14 -18 23
20 9 25 8 41 -8z m-3458 -61 c19 -9 40 -24 47 -34 7 -9 22 -20 35 -24 12 -4
22 -14 22 -22 0 -10 -8 -14 -22 -13 -13 2 -35 -5 -51 -15 -49 -33 -95 -44
-145 -35 -119 22 -152 31 -152 42 0 16 178 115 208 116 13 1 39 -6 58 -15z
m3441 3 c-1 -5 -7 -9 -12 -9 -6 0 -18 -4 -27 -9 -19 -10 -24 1 -8 17 12 12 51
13 47 1z m-1251 -92 c9 -6 12 -17 8 -28 -5 -14 -9 -15 -21 -5 -12 10 -18 9
-29 -7 -8 -11 -12 -26 -8 -35 11 -29 9 -35 -13 -32 -17 2 -23 -2 -23 -15 0
-10 -3 -29 -7 -42 -5 -21 -3 -23 13 -18 17 6 17 5 3 -5 -25 -21 -72 -107 -65
-123 3 -8 1 -15 -4 -15 -6 0 -10 -8 -10 -19 0 -10 -8 -25 -17 -32 -15 -12 -16
-12 -9 6 4 11 10 37 13 58 3 20 10 37 14 37 5 0 9 7 9 15 0 8 4 23 9 33 5 9
17 37 26 62 9 25 23 58 31 73 8 16 14 34 14 42 0 7 7 26 15 41 8 16 15 37 15
46 0 9 3 25 8 35 5 13 8 8 10 -21 2 -22 10 -45 18 -51z m1191 48 c-2 -1 -14 1
-27 4 -22 6 -22 7 -4 13 15 6 40 -8 31 -17z m-3014 -157 c40 -8 90 -17 112
-21 73 -11 95 -24 95 -57 0 -24 3 -28 13 -19 20 16 150 41 216 41 64 0 147
-24 174 -50 18 -16 25 -63 28 -180 1 -19 3 -29 6 -22 5 14 33 17 33 2 0 -13
-42 -35 -60 -31 -8 2 -12 0 -8 -4 4 -4 1 -20 -7 -36 -8 -15 -15 -37 -15 -47 0
-35 -27 -33 -52 4 -35 52 -52 43 -23 -12 13 -26 13 -29 -3 -36 -9 -4 -12 -7
-7 -8 6 0 2 -5 -8 -11 -12 -7 -16 -17 -12 -30 8 -25 -3 -43 -18 -30 -7 5 -28
11 -47 13 -29 2 -35 0 -35 -17 0 -11 7 -21 15 -21 8 -1 23 -2 33 -3 32 -2 17
-21 -18 -21 -24 0 -37 -6 -45 -20 -7 -14 -7 -20 0 -20 18 0 11 -25 -12 -39
-16 -10 -23 -10 -26 -2 -2 6 -8 11 -14 11 -6 0 -8 -7 -5 -15 8 -19 -10 -30
-27 -16 -10 8 -20 5 -40 -14 -30 -28 -31 -65 -2 -107 25 -35 19 -39 -25 -16
-49 25 -91 62 -82 72 3 3 14 0 22 -8 12 -11 21 -12 31 -5 12 9 13 11 1 16 -7
3 -21 13 -30 22 -16 16 -18 16 -33 -5 -10 -12 -13 -25 -8 -30 13 -14 24 -124
13 -124 -6 0 -27 11 -47 25 l-38 26 4 -47 c1 -26 -1 -48 -7 -50 -5 -2 -21 12
-35 31 -14 19 -28 35 -32 35 -18 0 -6 -35 21 -61 32 -30 30 -39 -5 -39 -17 0
-25 9 -34 36 -7 19 -10 44 -7 54 3 12 0 17 -7 14 -13 -5 -15 -17 -19 -131 -2
-56 -5 -69 -14 -61 -7 6 -13 26 -13 45 0 44 -24 40 -28 -5 -2 -18 -7 -32 -11
-32 -9 0 -10 12 -12 88 -1 75 -19 54 -19 -23 0 -72 -12 -89 -30 -45 -7 17 -16
30 -21 30 -5 0 -18 -18 -29 -40 -12 -23 -25 -38 -30 -35 -15 9 -12 33 4 42 18
10 33 63 18 63 -6 0 -12 -6 -15 -12 -2 -7 -2 -4 1 7 7 34 5 66 -7 78 -9 9 -13
6 -17 -11 -9 -33 -34 -28 -34 8 0 17 -4 30 -10 30 -15 0 -12 -77 3 -83 9 -4 9
-8 -2 -15 -9 -6 -12 -19 -8 -33 3 -13 1 -29 -5 -36 -8 -11 -14 -8 -25 14 -8
15 -18 44 -22 63 -6 27 -12 35 -28 33 -13 -2 -23 5 -26 17 -3 11 -10 20 -17
20 -13 0 -3 -43 11 -48 16 -6 10 -69 -9 -91 -17 -22 -17 -22 -46 33 -28 54
-56 79 -56 51 0 -7 4 -16 9 -19 9 -6 22 -56 14 -56 -2 0 -15 12 -28 26 -20 21
-28 24 -39 15 -10 -9 -15 -9 -20 1 -35 76 -76 114 -67 63 2 -16 1 -17 -13 -6
-10 8 -14 22 -10 36 4 15 0 24 -11 29 -11 4 -14 12 -10 26 9 29 -4 25 -15 -5
-12 -31 -26 -32 -34 -3 -4 17 -8 20 -17 11 -7 -7 -9 -23 -4 -40 9 -36 9 -37
-4 -41 -6 -2 -11 8 -11 22 0 16 -8 29 -22 37 -19 9 -21 9 -10 -2 16 -17 15
-30 -2 -23 -8 3 -13 20 -13 43 0 53 -8 62 -39 51 -28 -11 -55 -3 -34 10 7 4 9
13 6 19 -5 8 -14 7 -29 -4 -28 -20 -32 -19 -56 6 -12 13 -26 19 -36 15 -13 -4
-15 -1 -10 13 7 24 -10 55 -54 97 -19 17 -31 37 -27 43 10 15 43 14 49 -1 3
-7 6 -3 6 10 1 18 -4 22 -32 22 -18 0 -42 -7 -53 -15 -25 -19 -34 -19 -34 1 0
10 6 14 15 10 10 -3 15 1 15 12 0 14 -9 17 -45 17 -30 0 -45 4 -45 12 0 7 9
13 19 13 28 0 37 21 16 37 -11 7 -21 9 -24 4 -3 -5 -22 -12 -41 -15 -26 -5
-31 -4 -20 3 8 6 11 11 6 11 -5 0 -2 7 5 17 13 15 12 15 -8 2 -13 -8 -23 -17
-23 -21 0 -5 -9 -8 -21 -8 l-21 0 21 36 c26 44 26 44 -4 44 -16 0 -25 6 -25
15 0 8 -7 15 -15 15 -23 0 -18 13 16 41 19 15 30 32 28 43 -4 17 -6 16 -31 -4
-23 -17 -28 -19 -28 -6 0 9 -4 16 -10 16 -5 0 -10 5 -10 10 0 6 7 10 15 10 8
0 15 5 15 10 0 6 -10 10 -22 10 -17 0 -19 3 -10 12 7 7 12 19 12 28 0 27 58
97 96 115 30 14 58 16 150 13 63 -2 114 0 114 4 0 15 58 36 148 52 88 16 108
16 328 0 216 -15 239 -15 306 0 130 29 201 32 301 12z m2797 -26 c0 -12 -30
-33 -36 -27 -11 10 3 34 20 34 9 0 16 -4 16 -7z m-5023 -32 c-3 -8 -6 -5 -6 6
-1 11 2 17 5 13 3 -3 4 -12 1 -19z m-75 -20 c-8 -8 -9 -4 -5 13 4 13 8 18 11
10 2 -7 -1 -18 -6 -23z m3727 -100 c31 -24 73 -59 94 -78 47 -42 137 -185 137
-217 0 -12 9 -38 20 -58 12 -22 20 -54 20 -85 0 -55 -16 -76 -25 -33 -12 59
-28 109 -41 134 -7 14 -11 29 -7 33 3 3 1 6 -5 6 -7 0 -12 6 -12 14 0 7 -7 19
-15 26 -8 7 -15 21 -15 31 0 11 -7 19 -16 19 -8 0 -13 4 -9 9 3 5 -4 12 -15
16 -11 4 -56 43 -99 87 -47 47 -82 75 -85 69 -10 -15 -26 -14 -22 2 3 6 7 24
10 40 4 15 12 27 18 27 6 0 36 -19 67 -42z m-3549 -59 c0 -11 -4 -18 -10 -14
-5 3 -7 12 -3 20 7 21 13 19 13 -6z m3957 -31 c-3 -7 -5 -2 -5 12 0 14 2 19 5
13 2 -7 2 -19 0 -25z m-843 -10 c9 -36 7 -41 -9 -28 -16 13 -21 50 -6 50 5 0
11 -10 15 -22z m393 -32 c98 -64 116 -83 108 -115 -4 -14 -9 -28 -11 -30 -8
-9 -44 35 -49 59 -4 22 -21 39 -37 40 -4 0 -5 -7 -1 -15 4 -13 -3 -12 -36 6
-23 11 -48 19 -56 15 -8 -3 -17 -1 -20 4 -6 9 20 80 29 80 3 0 36 -20 73 -44z
m278 14 c3 -5 1 -10 -4 -10 -6 0 -11 5 -11 10 0 6 2 10 4 10 3 0 8 -4 11 -10z
m-3765 -16 c0 -8 -4 -12 -10 -9 -5 3 -10 10 -10 16 0 5 5 9 10 9 6 0 10 -7 10
-16z m3877 -6 c-3 -8 -6 -5 -6 6 -1 11 2 17 5 13 3 -3 4 -12 1 -19z m673 -8
c0 -6 -7 -13 -15 -16 -8 -4 -15 -12 -15 -19 0 -8 -7 -21 -16 -30 -27 -27 -64
-85 -64 -100 0 -8 -7 -15 -15 -15 -8 0 -15 -4 -15 -10 0 -5 5 -10 10 -10 6 0
10 -10 10 -22 0 -20 -1 -20 -13 -4 -16 22 -36 14 -67 -29 -14 -19 -30 -35 -37
-35 -6 0 -13 -6 -16 -12 -2 -7 -8 -10 -12 -6 -4 4 -1 14 6 22 21 25 87 99 107
121 10 11 29 37 43 57 13 21 30 38 37 38 6 0 12 7 12 15 0 15 39 62 53 64 4 1
7 -4 7 -9z m30 -33 c-9 -7 -14 -20 -12 -29 2 -11 -3 -18 -12 -18 -9 0 -16 5
-16 11 0 21 21 49 38 49 15 -1 15 -2 2 -13z m-688 -19 c-7 -7 -12 -8 -12 -2 0
14 12 26 19 19 2 -3 -1 -11 -7 -17z m-142 -3 c0 -8 -4 -15 -10 -15 -5 0 -7 7
-4 15 4 8 8 15 10 15 2 0 4 -7 4 -15z m-4100 -30 c-7 -8 -18 -15 -24 -15 -6 0
-2 7 8 15 25 19 32 19 16 0z m4210 -29 c7 -14 9 -33 6 -43 -6 -14 -10 -10 -22
22 -16 48 -16 45 -6 45 5 0 14 -11 22 -24z m663 -3 c-7 -3 -13 -11 -13 -19 0
-8 -9 -14 -20 -14 -25 0 -25 4 3 33 14 15 26 20 32 14 7 -6 6 -11 -2 -14z m64
5 c-3 -8 -6 -5 -6 6 -1 11 2 17 5 13 3 -3 4 -12 1 -19z m-1017 -58 c0 -26 -19
-108 -31 -135 -19 -42 -42 -143 -49 -215 -11 -112 -39 -253 -51 -261 -7 -4 -8
-16 -4 -29 5 -15 2 -25 -6 -31 -8 -4 -15 -21 -16 -36 -2 -48 -17 -91 -40 -117
-13 -15 -23 -39 -23 -56 0 -17 -4 -30 -9 -30 -5 0 -12 -15 -16 -32 -9 -41 -46
-118 -57 -118 -4 0 -8 -6 -8 -12 0 -7 -11 -23 -23 -35 -21 -19 -32 -46 -52
-120 -4 -14 -14 -23 -26 -23 -15 0 -19 -6 -17 -22 4 -44 -15 -102 -43 -129
-16 -16 -29 -37 -29 -48 0 -11 -4 -23 -10 -26 -5 -3 -10 -14 -10 -23 0 -18
-54 -72 -72 -72 -5 0 -7 -4 -4 -9 3 -4 -5 -6 -18 -4 -36 7 -43 -25 -8 -39 24
-10 25 -12 7 -16 -11 -2 -26 -9 -33 -15 -11 -9 -9 -14 10 -30 l23 -19 -28 5
c-23 4 -31 0 -39 -19 -6 -13 -17 -24 -25 -24 -16 0 -17 -12 0 -29 10 -11 8
-13 -10 -8 -13 3 -23 2 -23 -3 0 -4 -10 -10 -21 -13 -15 -4 -20 -11 -15 -22 4
-11 -4 -21 -24 -33 -16 -9 -30 -22 -30 -28 0 -7 -11 -19 -25 -28 -14 -9 -25
-21 -25 -25 0 -15 -79 -91 -94 -91 -7 0 -24 -12 -37 -28 -13 -15 -36 -34 -51
-41 -16 -8 -28 -18 -28 -22 0 -15 -33 -40 -46 -35 -8 3 -13 2 -12 -2 4 -12
-59 -68 -91 -82 -17 -7 -57 -38 -89 -69 -55 -53 -139 -107 -150 -96 -3 3 2 13
11 23 10 10 17 24 17 30 0 6 6 15 13 19 12 8 23 23 55 77 9 16 24 36 32 45 8
9 29 37 45 61 17 25 49 70 73 102 23 31 42 59 42 62 0 7 69 105 88 125 7 7 11
19 8 26 -3 8 2 16 10 19 8 3 14 12 14 21 0 13 19 41 85 130 8 10 15 30 15 42
0 13 7 26 15 29 8 4 15 15 15 25 0 11 9 32 19 47 32 45 35 69 10 75 -20 5 -21
8 -9 23 9 10 16 12 18 5 6 -17 170 195 206 266 9 18 24 37 34 42 10 5 24 22
32 38 8 15 22 40 32 55 10 14 18 31 18 36 0 5 18 37 40 70 22 33 40 65 40 71
0 6 7 23 17 37 16 26 26 43 75 131 33 60 70 110 83 112 5 0 10 7 10 14 1 13
25 65 38 82 21 28 57 87 57 95 0 13 143 292 160 313 8 9 20 17 27 17 7 0 13
11 13 25 0 16 -6 25 -16 25 -13 0 -14 3 -4 15 10 12 14 12 26 0 8 -7 14 -23
14 -35z m261 -20 c5 0 9 -11 9 -25 0 -14 -4 -25 -10 -25 -5 0 -10 9 -10 21 0
11 -5 29 -11 40 -6 12 -7 28 -3 37 6 13 9 9 12 -15 2 -18 7 -33 13 -33z m739
50 c0 -5 -2 -10 -4 -10 -2 0 -12 -3 -20 -6 -12 -5 -15 -2 -10 10 7 17 34 22
34 6z m-4991 -156 c36 -42 49 -64 37 -64 -9 0 -76 64 -76 73 0 5 -8 16 -17 23
-16 12 -16 13 -1 14 9 0 35 -21 57 -46z m4680 -70 c-7 -13 -19 -24 -26 -24
-11 0 -11 5 -3 20 6 11 15 20 20 20 6 0 10 8 11 18 0 11 2 13 6 4 3 -8 0 -25
-8 -38z m-3294 26 c3 -5 1 -10 -4 -10 -6 0 -11 5 -11 10 0 6 2 10 4 10 3 0 8
-4 11 -10z m35 -40 c0 -5 -5 -10 -11 -10 -5 0 -7 5 -4 10 3 6 8 10 11 10 2 0
4 -4 4 -10z m3214 -44 c-6 -16 -34 -30 -34 -18 0 10 22 32 32 32 4 0 5 -6 2
-14z m-1818 -43 c-8 -9 -36 17 -36 33 0 10 7 7 21 -7 11 -11 18 -23 15 -26z
m1781 -20 c-9 -9 -20 -13 -24 -9 -4 4 -1 11 7 16 25 16 35 11 17 -7z m-3026
-61 c-6 -2 -11 -10 -11 -18 0 -8 -4 -14 -10 -14 -15 0 -12 16 5 34 8 8 16 21
16 28 1 7 4 4 6 -7 3 -10 0 -21 -6 -23z m2969 11 c0 -5 -5 -15 -10 -23 -8 -12
-10 -11 -10 8 0 12 5 22 10 22 6 0 10 -3 10 -7z m-2779 -74 c-9 -22 -10 -22
-10 -3 -1 11 2 24 6 27 12 12 14 0 4 -24z m2744 21 c3 -5 -1 -10 -9 -10 -9 0
-16 5 -16 10 0 6 4 10 9 10 6 0 13 -4 16 -10z m-2665 -50 c0 -5 7 -10 15 -10
15 0 21 -21 9 -33 -5 -5 -64 11 -64 18 0 2 3 10 6 19 7 17 34 22 34 6z m2595
-20 c3 -5 -1 -10 -10 -10 -9 0 -13 5 -10 10 3 6 8 10 10 10 2 0 7 -4 10 -10z
m-2325 -24 c0 -8 -4 -18 -10 -21 -5 -3 -10 3 -10 14 0 12 5 21 10 21 6 0 10
-6 10 -14z m2290 -16 c0 -5 -4 -10 -10 -10 -5 0 -10 5 -10 10 0 6 5 10 10 10
6 0 10 -4 10 -10z m-2420 -14 c0 -3 -4 -8 -10 -11 -5 -3 -10 -1 -10 4 0 6 5
11 10 11 6 0 10 -2 10 -4z m-1610 -726 c0 -5 -2 -10 -4 -10 -3 0 -8 5 -11 10
-3 6 -1 10 4 10 6 0 11 -4 11 -10z m2660 -204 c0 -10 -46 -53 -75 -72 l-30
-19 30 37 c17 21 36 38 43 38 6 0 12 5 12 10 0 6 5 10 10 10 6 0 10 -2 10 -4z
m1800 -191 c30 -67 34 -86 16 -79 -9 3 -16 10 -16 15 0 5 -10 9 -22 9 -19 0
-16 -4 18 -35 31 -27 36 -36 25 -44 -9 -6 -23 -5 -37 1 -18 9 -22 16 -18 35 7
25 -13 32 -34 11 -9 -9 -15 -9 -24 0 -17 17 -36 15 -41 -5 -4 -14 -5 -13 -6 3
-1 23 24 40 34 24 11 -17 33 -11 38 11 4 14 11 20 21 16 18 -7 34 12 19 22
-19 12 -32 47 -22 62 11 17 12 40 2 37 -9 -3 -13 6 -12 30 0 16 14 -11 59
-113z m-2053 89 c-3 -3 -12 -4 -19 -1 -8 3 -5 6 6 6 11 1 17 -2 13 -5z m123
-33 c-6 -12 -15 -21 -21 -21 -10 0 -5 13 14 38 15 19 20 7 7 -17z m-60 -56
c-7 -9 -15 -13 -19 -10 -3 3 1 10 9 15 21 14 24 12 10 -5z m-65 -94 c3 -5 1
-12 -5 -16 -5 -3 -10 1 -10 9 0 18 6 21 15 7z m2055 -117 c0 -15 -6 -24 -15
-24 -17 0 -18 4 -9 37 8 29 24 20 24 -13z m-30 -39 c0 -8 -7 -15 -15 -15 -8 0
-15 7 -15 15 0 8 7 15 15 15 8 0 15 -7 15 -15z m-2054 -42 c-10 -10 -19 5 -10
18 6 11 8 11 12 0 2 -7 1 -15 -2 -18z m-70 -80 c-15 -16 -26 -22 -26 -14 0 17
44 63 48 51 2 -5 -8 -22 -22 -37z m1109 -351 c-6 -16 -7 -16 -17 1 -5 10 -7
26 -3 35 6 16 7 16 17 -1 5 -10 7 -26 3 -35z m-1275 -31 c0 -12 -20 -25 -27
-18 -7 7 6 27 18 27 5 0 9 -4 9 -9z m1175 -81 c7 -11 -42 -26 -53 -16 -7 8 17
26 35 26 6 0 15 -4 18 -10z m605 -2 c0 -7 -4 -19 -9 -26 -7 -11 -10 -10 -15 3
-10 26 -7 35 9 35 8 0 15 -6 15 -12z m-307 -18 c-3 -11 -9 -20 -13 -20 -5 0
-6 9 -3 20 3 11 9 20 13 20 5 0 6 -9 3 -20z m-323 -52 c-37 -37 -70 -44 -70
-16 0 10 7 19 15 20 8 0 21 1 28 2 6 1 18 7 25 14 30 28 31 10 2 -20z"/>
<path d="M4730 8349 c0 -5 5 -7 10 -4 6 3 10 8 10 11 0 2 -4 4 -10 4 -5 0 -10
-5 -10 -11z"/>
<path d="M4663 8297 c-22 -9 -32 -27 -15 -27 11 1 46 29 41 34 -2 2 -14 -1
-26 -7z"/>
<path d="M4605 8260 c3 -5 8 -10 11 -10 2 0 4 5 4 10 0 6 -5 10 -11 10 -5 0
-7 -4 -4 -10z"/>
<path d="M4572 8241 c4 -13 18 -16 19 -4 0 4 -5 9 -11 12 -7 2 -11 -2 -8 -8z"/>
<path d="M4516 8215 c-10 -8 -24 -16 -30 -18 -6 -2 -8 -7 -5 -11 4 -4 23 1 43
12 19 11 33 22 29 26 -9 9 -16 7 -37 -9z"/>
<path d="M3603 8273 c9 -2 23 -2 30 0 6 3 -1 5 -18 5 -16 0 -22 -2 -12 -5z"/>
<path d="M5503 8393 c9 -2 23 -2 30 0 6 3 -1 5 -18 5 -16 0 -22 -2 -12 -5z"/>
<path d="M5385 8290 l-40 -7 48 -2 c26 0 47 4 47 9 0 6 -3 9 -7 9 -5 -1 -26
-5 -48 -9z"/>
<path d="M5130 8271 c0 -4 11 -6 25 -3 14 2 25 6 25 8 0 2 -11 4 -25 4 -14 0
-25 -4 -25 -9z"/>
<path d="M5210 8270 c-13 -9 -13 -10 0 -9 8 1 26 5 40 9 l25 8 -25 1 c-14 0
-32 -4 -40 -9z"/>
<path d="M5070 8253 c-8 -3 -17 -9 -20 -13 -3 -4 -14 -12 -25 -18 -15 -9 -16
-11 -4 -12 8 0 24 7 35 15 10 8 29 15 42 15 12 0 22 5 22 10 0 11 -25 12 -50
3z"/>
<path d="M4980 8200 c0 -6 7 -10 15 -10 8 0 15 2 15 4 0 2 -7 6 -15 10 -8 3
-15 1 -15 -4z"/>
<path d="M4945 8180 c-3 -5 -1 -10 4 -10 6 0 11 5 11 10 0 6 -2 10 -4 10 -3 0
-8 -4 -11 -10z"/>
<path d="M4778 8043 c7 -3 16 -2 19 1 4 3 -2 6 -13 5 -11 0 -14 -3 -6 -6z"/>
<path d="M4724 8025 c-18 -14 -18 -14 4 -8 12 3 22 9 22 14 0 12 -3 11 -26 -6z"/>
<path d="M4610 7969 c0 -5 5 -7 10 -4 6 3 10 8 10 11 0 2 -4 4 -10 4 -5 0 -10
-5 -10 -11z"/>
<path d="M4938 7343 c7 -3 16 -2 19 1 4 3 -2 6 -13 5 -11 0 -14 -3 -6 -6z"/>
<path d="M5028 7323 c7 -3 16 -2 19 1 4 3 -2 6 -13 5 -11 0 -14 -3 -6 -6z"/>
<path d="M7140 6945 c0 -9 6 -12 15 -9 8 4 12 10 9 15 -8 14 -24 10 -24 -6z"/>
<path d="M2170 6910 c0 -6 7 -10 15 -10 8 0 15 2 15 4 0 2 -7 6 -15 10 -8 3
-15 1 -15 -4z"/>
<path d="M5893 6593 c9 -9 19 -14 23 -11 10 10 -6 28 -24 28 -15 0 -15 -1 1
-17z"/>
<path d="M6401 6554 c0 -11 3 -14 6 -6 3 7 2 16 -1 19 -3 4 -6 -2 -5 -13z"/>
<path d="M6421 6493 c-1 -12 4 -25 9 -28 12 -7 12 2 0 30 -8 19 -9 19 -9 -2z"/>
<path d="M3820 5633 c-68 -15 -89 -23 -182 -68 -36 -17 -60 -35 -64 -49 -3
-11 -14 -30 -24 -41 -29 -33 -60 -102 -80 -180 -10 -40 -33 -115 -50 -167 -18
-51 -33 -114 -35 -139 -3 -45 -2 -47 27 -53 42 -8 45 -8 63 10 17 18 95 32 95
17 0 -5 -5 -14 -12 -21 -9 -9 -4 -12 25 -12 26 0 43 -7 61 -26 19 -21 30 -25
50 -20 15 4 35 2 46 -4 18 -9 20 -8 20 15 0 24 3 26 29 20 42 -9 160 -9 201 0
30 7 32 9 15 16 -11 4 -31 8 -45 8 -63 2 -141 57 -108 77 5 4 8 17 5 30 -2 13
0 24 4 24 5 0 9 10 9 23 0 13 7 32 15 43 14 18 14 17 15 -14 0 -45 33 -106 73
-136 32 -25 39 -26 141 -22 96 3 110 6 132 27 32 30 54 81 54 125 0 43 9 43
37 0 24 -37 31 -74 19 -94 -12 -19 9 -36 31 -27 10 5 26 7 36 6 11 -2 17 5 17
18 0 12 3 21 6 21 21 0 114 -33 114 -41 0 -5 9 -9 21 -9 11 0 29 -4 39 -10 13
-7 19 -6 24 5 7 18 29 19 72 3 28 -10 35 -9 63 13 37 29 53 81 54 174 0 110
-15 146 -69 165 -34 12 -71 55 -109 129 -31 59 -115 155 -115 130 0 -8 5 -20
12 -27 6 -6 9 -14 6 -18 -7 -6 -49 15 -60 31 -5 6 -11 5 -16 -3 -7 -10 -21
-10 -73 3 -35 9 -113 18 -174 22 -60 3 -117 11 -126 17 -10 6 -52 10 -103 9
-47 -1 -86 3 -86 8 0 12 -22 10 -100 -8z m797 -166 c-2 -6 -11 4 -20 22 -24
48 -21 63 4 22 11 -18 18 -38 16 -44z m-597 -113 c0 -6 -25 -16 -55 -22 -44
-9 -61 -8 -90 4 -19 8 -35 18 -35 23 0 5 40 8 90 7 59 -1 90 -5 90 -12z m100
-210 c0 -17 -22 -14 -28 4 -2 7 3 12 12 12 9 0 16 -7 16 -16z"/>
<path d="M4143 5633 c9 -2 23 -2 30 0 6 3 -1 5 -18 5 -16 0 -22 -2 -12 -5z"/>
<path d="M6247 5620 c-27 -21 -111 -28 -122 -10 -9 14 -62 13 -217 -6 -73 -9
-160 -19 -193 -23 -49 -5 -60 -9 -59 -24 2 -17 -12 -24 -18 -9 -5 13 -58 24
-58 13 0 -5 5 -13 10 -16 18 -11 11 -22 -26 -40 -19 -9 -39 -26 -43 -38 -5
-14 -17 -22 -32 -22 -24 0 -26 -5 -14 -38 6 -15 3 -17 -19 -13 -15 3 -24 1
-21 -3 2 -5 -2 -15 -11 -22 -14 -11 -18 -11 -29 4 -13 18 -35 23 -35 8 0 -5 7
-12 16 -15 15 -6 15 -9 -5 -30 -11 -12 -18 -26 -14 -29 3 -4 -7 -7 -23 -7 -26
-1 -27 -2 -12 -14 16 -12 16 -14 1 -35 -30 -43 3 -291 37 -282 35 10 125 8
142 -3 14 -8 20 -8 27 2 13 21 84 43 93 29 6 -9 11 -8 17 3 15 22 23 6 12 -23
-13 -34 -3 -39 55 -26 27 5 66 10 87 9 25 -1 36 3 32 10 -3 5 -19 10 -35 10
-20 0 -31 6 -35 20 -3 11 -11 20 -16 20 -6 0 11 20 38 44 l48 45 7 -41 c15
-84 77 -128 182 -128 39 0 46 3 44 18 -4 25 34 27 57 2 34 -38 69 -21 99 47
13 30 17 54 12 83 -3 22 -3 40 1 40 13 0 63 -97 63 -121 0 -39 -14 -51 -86
-75 -38 -12 -67 -23 -64 -24 3 -1 55 -1 115 -1 111 -1 145 -5 144 -17 -4 -27
1 -32 24 -20 12 7 25 17 28 21 3 5 29 6 57 2 59 -6 67 3 20 24 l-32 15 27 9
c15 5 27 15 27 23 0 8 5 14 12 14 6 0 19 7 28 15 10 9 41 18 70 22 31 4 54 12
57 20 6 15 -33 219 -50 263 -33 85 -87 176 -120 206 -45 38 -236 134 -267 134
-4 0 -19 -9 -33 -20z m62 -11 c35 -12 41 -29 11 -29 -11 0 -20 5 -20 11 0 7
-11 8 -30 4 -29 -6 -43 8 -17 18 19 8 22 8 56 -4z m-7 -262 c7 -8 21 -12 31
-9 10 3 28 0 40 -6 12 -5 30 -13 41 -16 11 -4 16 -12 12 -22 -3 -8 -2 -12 4
-9 5 3 10 -4 9 -17 0 -13 2 -33 6 -45 6 -20 4 -22 -24 -20 -24 2 -30 6 -25 20
6 19 -6 23 -23 6 -7 -7 -19 -8 -30 -4 -10 5 -29 10 -43 12 -13 2 -30 9 -37 15
-13 10 -75 18 -158 20 -42 1 -91 33 -64 42 8 2 29 9 48 15 19 6 52 11 75 12
23 0 50 4 61 9 30 13 63 12 77 -3z m-172 -201 c0 -22 -19 -30 -35 -16 -22 18
-18 30 10 30 15 0 25 -6 25 -14z m-180 -106 c0 -5 6 -10 14 -10 16 0 66 -38
66 -51 0 -12 -42 -12 -75 1 -20 8 -25 16 -23 40 2 27 18 45 18 20z"/>
<path d="M6561 5604 c0 -11 3 -14 6 -6 3 7 2 16 -1 19 -3 4 -6 -2 -5 -13z"/>
<path d="M6717 5255 c3 -22 10 -44 14 -49 5 -6 9 -19 9 -30 0 -10 3 -17 6 -14
3 3 2 34 -2 68 -4 34 -10 56 -14 50 -6 -9 -9 -9 -13 1 -3 8 -3 -4 0 -26z"/>
<path d="M4305 5000 c-3 -5 1 -10 9 -10 8 0 18 5 21 10 3 6 -1 10 -9 10 -8 0
-18 -4 -21 -10z"/>
<path d="M5948 4903 c7 -3 16 -2 19 1 4 3 -2 6 -13 5 -11 0 -14 -3 -6 -6z"/>
<path d="M6280 4830 c-12 -8 -9 -10 12 -10 15 0 30 5 33 10 8 13 -25 13 -45 0z"/>
<path d="M4695 4472 c-35 -7 -53 -31 -53 -72 -1 -65 34 -65 63 -1 21 48 17 78
-10 73z"/>
<path d="M4535 4280 c-3 -5 1 -10 9 -10 9 0 16 5 16 10 0 6 -4 10 -9 10 -6 0
-13 -4 -16 -10z"/>
<path d="M6881 4163 c0 -25 1 -26 9 -8 12 27 12 35 0 35 -5 0 -10 -12 -9 -27z"/>
<path d="M3330 4060 c0 -11 5 -20 10 -20 6 0 10 9 10 20 0 11 -4 20 -10 20 -5
0 -10 -9 -10 -20z"/>
<path d="M5840 3806 c0 -2 7 -6 15 -10 8 -3 15 -1 15 4 0 6 -7 10 -15 10 -8 0
-15 -2 -15 -4z"/>
<path d="M2600 6156 c0 -9 5 -16 10 -16 6 0 10 4 10 9 0 6 -4 13 -10 16 -5 3
-10 -1 -10 -9z"/>
<path d="M2380 5466 c0 -2 9 -6 20 -9 11 -3 18 -1 14 4 -5 9 -34 13 -34 5z"/>
<path d="M2330 5450 c0 -5 10 -10 23 -10 18 0 19 2 7 10 -19 13 -30 13 -30 0z"/>
<path d="M2355 5410 c-3 -5 -1 -10 4 -10 6 0 11 5 11 10 0 6 -2 10 -4 10 -3 0
-8 -4 -11 -10z"/>
<path d="M2381 5347 c-16 -20 -6 -56 10 -40 6 6 9 21 7 33 -3 21 -4 22 -17 7z"/>
<path d="M2400 5275 c0 -25 14 -34 24 -16 8 12 -3 41 -15 41 -5 0 -9 -11 -9
-25z"/>
<path d="M2321 5244 c0 -11 3 -14 6 -6 3 7 2 16 -1 19 -3 4 -6 -2 -5 -13z"/>
<path d="M2616 4791 c-4 -7 -5 -15 -2 -18 9 -9 19 4 14 18 -4 11 -6 11 -12 0z"/>
<path d="M2720 4705 c0 -9 6 -12 15 -9 8 4 15 10 15 15 0 5 -7 9 -15 9 -8 0
-15 -7 -15 -15z"/>
<path d="M2690 4596 c0 -54 15 -69 23 -23 3 17 8 40 12 50 5 13 2 17 -14 17
-18 0 -21 -6 -21 -44z"/>
<path d="M2711 4434 c0 -11 3 -14 6 -6 3 7 2 16 -1 19 -3 4 -6 -2 -5 -13z"/>
<path d="M2791 4274 c0 -11 3 -14 6 -6 3 7 2 16 -1 19 -3 4 -6 -2 -5 -13z"/>
<path d="M1040 5404 c0 -8 5 -12 10 -9 6 3 10 10 10 16 0 5 -4 9 -10 9 -5 0
-10 -7 -10 -16z"/>
<path d="M1215 5286 c-50 -28 -75 -50 -75 -67 0 -26 17 -24 48 5 15 14 38 33
51 44 18 14 21 20 10 24 -8 2 -23 0 -34 -6z"/>
<path d="M1266 5215 c-3 -8 -1 -15 4 -15 6 0 10 7 10 15 0 8 -2 15 -4 15 -2 0
-6 -7 -10 -15z"/>
<path d="M1110 5213 c0 -7 0 -16 1 -20 0 -4 -9 -10 -20 -15 -27 -9 -27 -25 -1
-33 11 -4 18 -11 15 -16 -4 -5 -1 -9 5 -9 6 0 8 10 4 25 -3 14 -1 31 4 38 7 8
7 18 2 27 -7 10 -10 11 -10 3z"/>
<path d="M1048 5198 c5 -5 16 -8 23 -6 8 3 3 7 -10 11 -17 4 -21 3 -13 -5z"/>
<path d="M1172 5124 c4 -21 22 -23 26 -1 2 10 -3 17 -13 17 -10 0 -15 -6 -13
-16z"/>
<path d="M1130 5112 c0 -5 9 -17 20 -27 22 -20 26 -9 6 18 -14 18 -26 22 -26
9z"/>
<path d="M1194 5074 c-4 -15 -2 -30 5 -37 10 -9 11 -6 6 16 -6 21 -4 27 9 27
9 0 16 5 16 10 0 22 -30 9 -36 -16z"/>
<path d="M1240 5060 c0 -5 5 -10 10 -10 6 0 10 5 10 10 0 6 -4 10 -10 10 -5 0
-10 -4 -10 -10z"/>
<path d="M1240 5001 c0 -6 5 -13 10 -16 6 -3 10 1 10 9 0 9 -4 16 -10 16 -5 0
-10 -4 -10 -9z"/>
<path d="M1265 4971 c-3 -5 -1 -12 5 -16 5 -3 10 1 10 9 0 18 -6 21 -15 7z"/>
<path d="M1290 4944 c0 -8 5 -12 10 -9 6 3 10 10 10 16 0 5 -4 9 -10 9 -5 0
-10 -7 -10 -16z"/>
<path d="M1506 4945 c4 -8 7 -15 9 -15 2 0 5 7 9 15 3 9 0 15 -9 15 -9 0 -12
-6 -9 -15z"/>
<path d="M1537 4870 c6 -24 26 -21 31 3 2 11 -3 17 -16 17 -15 0 -19 -5 -15
-20z"/>
<path d="M8405 3520 c-3 -5 -2 -10 4 -10 5 0 13 5 16 10 3 6 2 10 -4 10 -5 0
-13 -4 -16 -10z"/>
<path d="M4514 3078 c-15 -23 -4 -87 21 -124 14 -20 25 -48 25 -61 0 -18 4
-24 14 -20 10 4 18 -2 22 -16 20 -65 176 -153 277 -156 31 -1 83 -8 114 -16
71 -19 123 -19 148 -1 39 26 62 28 83 6 19 -21 21 -21 46 -4 25 16 30 16 67 1
39 -16 41 -15 46 3 3 11 10 20 17 20 6 0 16 8 23 19 8 13 21 18 47 15 20 -1
36 1 36 5 0 4 13 22 30 41 16 18 27 36 25 41 -11 16 17 20 29 4 12 -17 13 -17
20 1 12 30 14 98 3 112 -13 16 0 29 14 15 6 -6 18 -9 25 -6 16 6 19 39 4 48
-5 3 -10 17 -10 30 0 26 -15 41 -25 25 -4 -6 -13 -7 -23 -1 -10 5 -67 3 -142
-5 -261 -28 -736 -14 -870 26 -45 13 -57 13 -66 -2z"/>
<path d="M5640 2898 c0 -10 4 -18 9 -18 5 0 12 -8 14 -17 4 -14 5 -15 6 -2 0
8 -6 24 -14 35 -13 17 -14 17 -15 2z"/>
<path d="M4326 2861 c-4 -7 -5 -15 -2 -18 9 -9 19 4 14 18 -4 11 -6 11 -12 0z"/>
<path d="M5825 2724 c23 -17 38 -18 33 -1 -3 6 -15 13 -28 13 -23 1 -23 1 -5
-12z"/>
<path d="M5571 2560 c12 -33 39 -41 39 -12 0 21 -18 42 -36 42 -10 0 -10 -7
-3 -30z"/>
<path d="M5084 2484 c3 -9 6 -18 6 -20 0 -2 4 -4 9 -4 5 0 7 9 4 20 -3 11 -10
20 -15 20 -6 0 -7 -7 -4 -16z"/>
<path d="M5280 2423 c1 -45 2 -47 16 -28 17 23 15 66 -3 73 -9 2 -13 -10 -13
-45z"/>
<path d="M6960 2958 c0 -9 5 -20 11 -23 17 -11 20 0 4 21 -13 17 -14 17 -15 2z"/>
<path d="M4905 8680 c3 -5 10 -10 16 -10 5 0 9 5 9 10 0 6 -7 10 -16 10 -8 0
-12 -4 -9 -10z"/>
<path d="M45 6001 c-6 -11 9 -23 19 -14 9 9 7 23 -3 23 -6 0 -12 -4 -16 -9z"/>
<path d="M5 5960 c3 -5 10 -10 16 -10 5 0 9 5 9 10 0 6 -7 10 -16 10 -8 0 -12
-4 -9 -10z"/>
<path d="M185 5690 c-3 -5 -1 -10 4 -10 6 0 11 5 11 10 0 6 -2 10 -4 10 -3 0
-8 -4 -11 -10z"/>
<path d="M400 5610 c0 -5 5 -10 11 -10 5 0 7 5 4 10 -3 6 -8 10 -11 10 -2 0
-4 -4 -4 -10z"/>
<path d="M105 5600 c3 -5 10 -10 16 -10 5 0 9 5 9 10 0 6 -7 10 -16 10 -8 0
-12 -4 -9 -10z"/>
<path d="M145 5570 c-4 -6 -3 -16 3 -22 13 -13 23 4 13 21 -7 10 -10 10 -16 1z"/>
<path d="M230 5519 c-13 -8 -13 -10 0 -19 27 -18 39 -9 22 17 -5 8 -12 9 -22
2z"/>
<path d="M660 5320 c0 -5 5 -10 10 -10 6 0 10 5 10 10 0 6 -4 10 -10 10 -5 0
-10 -4 -10 -10z"/>
<path d="M10220 5240 c0 -5 5 -10 11 -10 5 0 7 5 4 10 -3 6 -8 10 -11 10 -2 0
-4 -4 -4 -10z"/>
<path d="M595 5210 c-3 -5 -1 -10 4 -10 6 0 11 5 11 10 0 6 -2 10 -4 10 -3 0
-8 -4 -11 -10z"/>
<path d="M10182 5201 c2 -7 7 -12 11 -12 12 1 9 15 -3 20 -7 2 -11 -2 -8 -8z"/>
<path d="M802 5169 c2 -7 10 -15 17 -17 8 -3 12 1 9 9 -2 7 -10 15 -17 17 -8
3 -12 -1 -9 -9z"/>
<path d="M835 5130 c-3 -5 1 -10 10 -10 9 0 13 5 10 10 -3 6 -8 10 -10 10 -2
0 -7 -4 -10 -10z"/>
<path d="M10060 5100 c0 -5 5 -10 10 -10 6 0 10 5 10 10 0 6 -4 10 -10 10 -5
0 -10 -4 -10 -10z"/>
<path d="M10220 5045 c-10 -12 -10 -15 4 -15 9 0 16 7 16 15 0 8 -2 15 -4 15
-2 0 -9 -7 -16 -15z"/>
<path d="M673 5020 c-2 -19 8 -26 20 -14 7 7 -2 34 -12 34 -4 0 -7 -9 -8 -20z"/>
<path d="M10005 4999 c-4 -6 -5 -13 -1 -16 8 -8 56 6 56 17 0 13 -47 13 -55
-1z"/>
<path d="M0 2797 l0 -1004 43 -7 c23 -3 62 -11 87 -16 25 -5 83 -17 130 -26
153 -29 175 -34 215 -43 123 -27 474 -95 570 -111 39 -6 88 -15 110 -20 22 -4
72 -13 110 -20 118 -19 251 -48 371 -79 23 -6 52 -11 64 -11 13 0 37 -4 54 -9
17 -5 63 -15 101 -21 39 -6 86 -15 105 -20 19 -5 62 -14 95 -20 33 -6 80 -15
105 -21 25 -5 77 -16 115 -24 39 -8 102 -23 140 -33 79 -22 95 -19 67 12 -19
21 -25 45 -42 186 -5 41 -23 129 -40 195 -16 66 -30 123 -30 128 0 11 49 9 89
-4 52 -17 63 -23 75 -45 6 -10 13 -21 16 -24 3 -3 10 -18 17 -35 62 -160 102
-228 115 -197 5 12 117 86 161 105 86 39 104 46 134 52 50 10 54 21 44 128
-10 105 -26 148 -56 157 -19 5 -74 38 -85 50 -3 4 -13 9 -23 13 -16 6 -97 57
-257 162 -36 23 -110 67 -165 97 -55 31 -149 85 -208 122 -60 36 -110 66 -113
66 -2 0 -50 28 -106 61 -133 80 -158 94 -248 142 -41 22 -110 62 -153 89 -43
26 -81 48 -84 48 -2 0 -28 15 -56 33 -53 34 -111 70 -158 97 -15 8 -86 51
-158 95 -72 44 -139 85 -149 90 -10 6 -32 20 -50 33 l-32 24 20 28 c11 15 20
31 20 34 0 3 11 21 24 41 33 49 51 104 38 117 -10 10 -43 -46 -99 -164 -10
-21 -22 -38 -27 -38 -5 0 -23 11 -40 24 -17 13 -41 26 -53 30 -13 4 -23 12
-23 17 0 5 -6 9 -14 9 -7 0 -34 16 -59 35 -25 19 -48 35 -51 35 -3 0 -16 9
-28 21 -13 11 -57 42 -98 68 -41 27 -136 88 -210 137 -74 48 -142 93 -151 99
-9 5 -51 34 -93 63 l-76 53 0 -1004z m63 204 c50 -28 57 -31 242 -122 186 -90
180 -87 174 -93 -4 -5 -38 10 -234 104 -55 27 -115 54 -132 62 -18 7 -33 15
-33 19 0 3 -16 11 -35 19 -19 8 -35 17 -35 22 0 13 17 9 53 -11z m812 -554
c22 -23 53 -65 69 -92 70 -121 141 -225 155 -225 9 -1 32 -7 51 -15 86 -33
131 -48 210 -71 47 -14 127 -41 177 -61 89 -35 118 -38 95 -11 -18 22 -123
351 -115 358 4 4 37 -2 73 -14 l65 -21 62 -155 c93 -229 142 -348 174 -415 28
-59 38 -115 20 -115 -4 0 -39 18 -77 40 -38 22 -103 51 -144 65 -41 15 -84 30
-95 35 -11 5 -54 21 -95 37 -79 29 -102 48 -223 185 -54 61 -61 66 -98 64 -21
0 -39 -3 -39 -6 1 -3 12 -23 25 -45 57 -93 62 -92 -135 -20 -41 15 -124 45
-185 66 -118 41 -148 65 -190 146 -11 21 -30 52 -43 70 -14 20 -19 34 -12 38
5 3 48 -5 94 -19 46 -14 93 -26 104 -26 11 0 36 -7 57 -16 20 -8 39 -13 42
-10 3 2 -13 31 -34 63 -60 89 -115 192 -108 203 3 6 22 10 42 10 30 0 44 -8
78 -43z m331 -444 c-10 -10 -19 5 -10 18 6 11 8 11 12 0 2 -7 1 -15 -2 -18z"/>
<path d="M1115 2061 c-6 -11 9 -23 19 -14 9 9 7 23 -3 23 -6 0 -12 -4 -16 -9z"/>
<path d="M893 3463 c-17 -6 -17 -23 0 -23 8 0 14 7 14 15 0 8 -1 15 -1 14 -1
0 -7 -3 -13 -6z"/>
<path d="M708 3353 c7 -3 16 -2 19 1 4 3 -2 6 -13 5 -11 0 -14 -3 -6 -6z"/>
<path d="M795 3350 c3 -5 8 -10 11 -10 2 0 4 5 4 10 0 6 -5 10 -11 10 -5 0 -7
-4 -4 -10z"/>
<path d="M860 3329 c6 -11 16 -19 21 -17 17 6 12 22 -10 30 -19 7 -20 5 -11
-13z"/>
<path d="M748 3333 c7 -3 16 -2 19 1 4 3 -2 6 -13 5 -11 0 -14 -3 -6 -6z"/>
<path d="M785 3310 c-3 -5 -1 -10 4 -10 6 0 11 5 11 10 0 6 -2 10 -4 10 -3 0
-8 -4 -11 -10z"/>
<path d="M820 3309 c0 -5 5 -7 10 -4 6 3 10 8 10 11 0 2 -4 4 -10 4 -5 0 -10
-5 -10 -11z"/>
<path d="M10148 2245 c-81 -51 -141 -85 -291 -163 -54 -29 -166 -81 -282 -132
-27 -12 -77 -35 -110 -50 -94 -43 -205 -91 -350 -151 -11 -4 -60 -26 -108 -48
-49 -23 -148 -64 -220 -92 -73 -28 -145 -57 -162 -64 -16 -7 -59 -25 -95 -38
-174 -68 -359 -140 -390 -154 -115 -50 -244 -98 -257 -95 -18 4 -24 -13 -9
-33 12 -17 16 -17 87 -1 81 18 133 33 164 46 28 11 123 41 165 51 82 19 117
28 155 39 22 6 56 15 75 20 33 8 54 14 148 41 20 6 73 19 117 29 103 24 138
33 205 53 30 9 107 28 170 43 148 34 177 41 225 53 58 15 113 28 170 40 28 6
84 20 125 32 71 20 93 26 185 48 83 20 272 70 323 86 l52 16 0 239 c0 132 -1
240 -2 240 -2 0 -42 -25 -90 -55z"/>
<path d="M3180 2011 c0 -6 5 -13 10 -16 6 -3 10 1 10 9 0 9 -4 16 -10 16 -5 0
-10 -4 -10 -9z"/>
<path d="M0 1436 l0 -273 53 -7 c28 -4 108 -11 177 -16 132 -11 221 -20 410
-41 63 -7 164 -13 225 -13 l110 -1 5 30 c4 23 15 35 45 50 141 72 244 133 326
195 52 38 99 68 106 66 7 -3 40 -10 75 -16 238 -43 280 -63 328 -156 13 -27
38 -66 54 -86 33 -42 52 -46 146 -28 28 5 63 7 76 4 20 -5 24 -12 24 -45 0
-36 2 -39 28 -39 15 0 38 9 52 20 27 21 104 28 115 10 15 -24 34 -5 73 72 23
45 40 83 38 85 -2 2 -25 8 -52 13 -27 5 -101 20 -164 33 -164 36 -263 55 -445
87 -88 15 -171 32 -185 38 -14 5 -59 15 -100 21 -41 7 -118 19 -170 27 -151
24 -214 36 -225 44 -5 4 -44 13 -85 19 -41 7 -115 20 -165 31 -49 10 -121 23
-160 29 -38 6 -108 18 -155 26 -47 8 -166 26 -265 40 -99 14 -203 32 -232 40
-28 8 -54 15 -57 15 -3 0 -6 -123 -6 -274z"/>
<path d="M10178 1695 c-5 -6 -279 -78 -378 -100 -36 -8 -72 -18 -80 -21 -16
-7 -173 -42 -225 -50 -16 -3 -39 -9 -50 -14 -11 -5 -33 -11 -50 -14 -16 -2
-61 -12 -100 -20 -38 -8 -95 -20 -125 -26 -57 -12 -117 -27 -160 -40 -14 -4
-52 -14 -85 -20 -53 -12 -94 -22 -200 -50 -16 -4 -50 -14 -75 -23 -25 -8 -70
-20 -100 -27 -30 -7 -64 -16 -75 -20 -35 -14 -59 -21 -100 -30 -79 -16 -315
-79 -332 -88 -10 -6 -42 -13 -70 -17 -29 -4 -55 -11 -58 -15 -8 -13 6 -40 21
-40 8 0 41 -13 74 -30 77 -39 106 -39 113 -1 12 60 71 78 117 36 13 -12 22
-13 48 -3 26 10 37 9 66 -5 28 -13 37 -25 46 -59 14 -52 36 -78 65 -78 29 0
172 149 245 254 l54 78 43 -6 c49 -6 75 -19 118 -59 56 -52 139 -103 223 -136
45 -19 87 -41 92 -51 5 -10 12 -44 15 -76 6 -59 20 -122 36 -159 4 -11 15 -37
23 -57 8 -20 34 -57 59 -82 40 -42 49 -46 91 -46 53 0 181 -18 211 -30 11 -4
31 -12 45 -18 14 -6 43 -16 65 -23 22 -6 49 -15 60 -19 11 -4 40 -13 65 -20
125 -35 265 -82 302 -101 10 -5 20 -9 23 -9 3 0 5 56 5 125 l0 125 -42 -1
c-24 0 -70 -5 -103 -10 -135 -20 -303 -39 -352 -39 -98 0 -62 17 60 29 67 6
151 16 187 21 36 5 107 15 158 22 l92 12 0 518 0 518 -28 0 c-16 0 -31 -2 -34
-5z m-704 -311 c42 -42 30 -84 -25 -84 -26 0 -79 40 -79 60 0 17 39 50 59 50
10 0 30 -12 45 -26z"/>
<path d="M2770 1470 c0 -5 7 -10 15 -10 8 0 15 5 15 10 0 6 -7 10 -15 10 -8 0
-15 -4 -15 -10z"/>
<path d="M7694 1438 c3 -7 9 -21 12 -30 4 -10 11 -18 16 -18 5 0 7 6 4 13 -3
6 -9 20 -12 30 -4 9 -11 17 -16 17 -5 0 -7 -6 -4 -12z"/>
<path d="M1460 1351 c0 -6 5 -13 10 -16 6 -3 10 1 10 9 0 9 -4 16 -10 16 -5 0
-10 -4 -10 -9z"/>
<path d="M1465 1311 c-7 -12 12 -24 25 -16 11 7 4 25 -10 25 -5 0 -11 -4 -15
-9z"/>
<path d="M1700 1303 c8 -3 24 -10 35 -15 20 -9 20 -9 1 6 -11 9 -27 16 -35 15
-14 0 -14 -1 -1 -6z"/>
<path d="M1515 1290 c-4 -6 3 -10 14 -10 25 0 27 6 6 13 -8 4 -17 2 -20 -3z"/>
<path d="M1464 1258 c-4 -13 -8 -79 -9 -148 -2 -82 -6 -125 -14 -128 -17 -6
-13 -22 5 -22 11 0 14 -5 10 -16 -3 -9 -6 -21 -6 -27 0 -8 -4 -7 -9 2 -7 11
-9 8 -10 -10 -2 -40 -9 -129 -19 -234 -12 -115 -4 -386 14 -495 3 -19 8 -68
11 -107 l5 -73 138 0 138 0 -33 93 c-18 50 -35 99 -38 107 -6 18 -24 93 -32
137 -3 17 -2 34 4 37 18 12 36 -5 38 -36 1 -17 7 -36 13 -42 5 -5 10 -22 10
-37 0 -15 6 -29 14 -32 14 -6 13 18 -4 58 -15 36 -20 88 -10 100 7 8 5 28 -4
61 -20 70 -39 256 -34 343 3 73 4 75 33 84 17 5 53 26 80 46 65 48 129 77 187
86 26 4 55 13 65 21 16 12 14 13 -23 14 -24 0 -47 6 -54 15 -7 8 -21 15 -31
15 -12 0 -19 7 -19 18 0 11 -8 26 -18 35 -10 10 -29 40 -42 67 -24 52 -50 66
-50 28 0 -28 -44 -84 -80 -103 -27 -14 -32 -14 -55 1 -29 19 -45 11 -45 -22 0
-14 4 -22 10 -19 16 10 11 -8 -10 -35 -17 -23 -19 -23 -26 -7 -4 10 -4 41 -1
69 4 29 2 56 -3 62 -5 6 -10 32 -12 56 -3 42 -5 45 -30 43 -16 -1 -28 2 -28 8
0 18 -19 9 -26 -13z m382 -143 c19 -18 9 -57 -13 -53 -22 4 -38 32 -30 52 8
20 24 21 43 1z m-186 -54 c0 -10 -8 -25 -17 -32 -15 -12 -16 -12 -10 3 3 10 2
20 -4 24 -6 4 -6 11 2 20 14 17 29 9 29 -15z m235 -20 c8 -14 -10 -22 -30 -15
-13 5 -14 8 -3 15 17 11 26 11 33 0z"/>
<path d="M5710 1234 c0 -8 5 -12 10 -9 6 4 8 11 5 16 -9 14 -15 11 -15 -7z"/>
<path d="M8849 1188 c-7 -13 -15 -25 -19 -28 -3 -3 -21 -27 -40 -55 -66 -100
-170 -185 -226 -185 -8 0 -14 -6 -12 -12 4 -13 45 -36 126 -71 33 -15 42 -24
42 -43 0 -14 -7 -32 -16 -41 -14 -14 -16 -14 -21 6 -3 13 -11 20 -19 17 -8 -3
-14 1 -14 8 0 18 -56 66 -76 66 -9 0 -12 -4 -9 -10 3 -5 1 -53 -5 -107 -11
-97 -15 -126 -41 -293 -7 -47 -12 -107 -10 -133 1 -34 -4 -58 -18 -80 -38 -62
-113 -218 -107 -224 14 -14 35 12 79 98 26 52 47 102 47 112 0 10 7 17 18 17
17 -1 52 -22 52 -33 0 -3 -22 -45 -50 -93 -27 -48 -50 -91 -50 -95 0 -5 77 -9
170 -9 157 0 170 1 170 18 0 10 4 22 8 27 5 6 14 41 21 80 7 38 16 74 21 80 4
5 10 28 13 50 3 22 12 81 21 130 37 211 38 335 4 335 -6 0 -8 13 -4 35 4 20 4
56 0 81 -6 39 -10 46 -34 51 -26 5 -28 8 -27 54 2 51 5 57 25 37 9 -9 12 -7
12 11 0 13 -8 30 -17 36 -17 13 -17 14 0 33 17 18 15 49 -4 62 -4 3 1 22 11
42 10 20 15 39 12 42 -11 11 -21 6 -33 -16z"/>
<path d="M1616 1165 c4 -8 10 -15 15 -15 5 0 9 -7 9 -15 0 -8 9 -15 20 -15 28
0 25 13 -10 38 -34 26 -41 27 -34 7z"/>
<path d="M8886 1141 c-4 -7 -5 -15 -2 -18 9 -9 19 4 14 18 -4 11 -6 11 -12 0z"/>
<path d="M1007 1070 c-10 -36 -9 -128 2 -134 15 -9 21 44 13 104 -6 45 -9 50
-15 30z"/>
<path d="M2040 1050 c0 -13 11 -13 30 0 12 8 11 10 -7 10 -13 0 -23 -4 -23
-10z"/>
<path d="M8221 979 c8 -16 8 -32 1 -58 -6 -20 -13 -56 -17 -81 -8 -56 -32
-174 -45 -220 -5 -19 -15 -57 -22 -85 -6 -27 -17 -53 -22 -57 -17 -12 -49 -9
-80 7 -33 17 -36 18 -36 7 0 -4 23 -21 50 -37 50 -29 59 -42 41 -61 -5 -5 -42
-72 -81 -148 -39 -77 -87 -161 -106 -187 -19 -26 -34 -49 -34 -53 0 -3 53 -6
118 -6 l117 0 83 169 c46 94 92 180 103 192 11 13 22 34 25 48 3 14 9 34 15
43 5 10 9 25 9 35 0 9 4 30 9 47 15 49 46 222 56 314 7 65 -12 69 -30 6 -7
-25 -13 -35 -18 -26 -17 26 -29 12 -22 -26 4 -29 2 -42 -9 -51 -13 -11 -17
-10 -22 3 -3 9 -3 27 0 40 3 13 0 44 -8 69 -8 25 -11 49 -8 52 3 3 -4 8 -16
12 -32 8 -30 42 3 35 37 -7 31 5 -11 23 -49 20 -57 19 -43 -6z"/>
<path d="M1969 978 c-2 -22 -4 -31 -17 -76 -7 -24 -13 -90 -13 -148 0 -83 -3
-106 -14 -111 -8 -3 -15 -9 -15 -14 0 -4 7 -6 15 -3 20 8 19 -11 -1 -42 -12
-17 -13 -24 -4 -22 8 2 13 -11 14 -37 2 -45 -8 -65 -35 -65 -10 0 -19 -9 -22
-22 -4 -23 -4 -23 -6 1 0 13 7 30 17 38 9 8 11 12 5 8 -10 -5 -13 9 -13 56 0
53 -2 60 -15 49 -13 -10 -15 -9 -15 11 0 13 4 41 9 62 10 43 3 119 -10 111 -5
-3 -10 -29 -11 -57 -1 -46 -2 -43 -8 23 -3 41 -6 90 -5 108 0 33 -8 41 -22 20
-22 -35 22 -468 47 -468 4 0 12 -19 19 -42 7 -24 16 -53 21 -65 24 -56 29 -70
41 -108 6 -22 15 -49 19 -60 18 -51 30 -93 30 -108 0 -15 14 -17 120 -17 66 0
120 2 120 5 0 2 -10 21 -21 42 -74 131 -143 313 -137 363 2 19 16 31 61 53 36
18 55 33 50 38 -6 6 -20 6 -34 2 -49 -17 -81 -10 -99 22 -10 17 -16 32 -14 35
1 3 -4 51 -12 105 -9 63 -12 142 -9 213 5 107 4 112 -15 112 -11 0 -21 -6 -21
-12z"/>
<path d="M0 727 c0 -120 4 -217 8 -215 4 2 46 18 93 36 46 19 93 38 104 42 17
7 100 29 225 60 63 16 124 28 190 40 36 6 84 16 107 21 23 5 80 9 126 9 66 0
86 3 91 15 3 8 10 15 15 15 15 0 -22 -69 -37 -70 -7 0 -15 -7 -18 -15 -4 -8
-12 -15 -19 -15 -7 0 -18 7 -25 15 -21 25 -47 17 -77 -25 -22 -32 -33 -39 -51
-35 -32 8 -41 -22 -13 -41 11 -8 21 -24 21 -34 0 -18 31 -167 50 -240 5 -19
16 -75 25 -125 9 -50 21 -107 26 -127 l10 -38 282 0 283 0 -3 67 c-2 38 -8 86
-13 108 -5 22 -12 53 -15 68 -3 15 -10 25 -15 22 -16 -10 -24 24 -11 49 7 12
11 49 8 86 l-3 65 -2 -72 c-2 -66 -4 -73 -22 -73 -11 0 -20 -5 -20 -12 0 -6
-3 -8 -6 -5 -4 4 -1 13 6 22 8 9 10 24 4 42 -4 16 -8 31 -8 36 -1 4 -5 7 -11
8 -5 0 -16 6 -24 12 -11 10 -13 8 -7 -10 4 -13 5 -27 1 -32 -10 -18 -34 0 -40
30 -4 19 -16 34 -32 40 -33 12 -33 12 -33 -10 0 -11 -4 -22 -9 -25 -10 -7 -37
22 -45 49 -3 13 -4 11 -2 -6 1 -15 -3 -34 -10 -44 -11 -15 -14 -11 -20 34 -5
41 -10 51 -25 51 -11 0 -19 -4 -19 -10 0 -5 5 -10 12 -10 9 0 9 -3 0 -12 -7
-7 -12 -34 -12 -61 0 -76 -17 -46 -25 45 -4 46 -9 99 -11 118 -10 93 -11 196
-2 201 12 8 2 29 -13 29 -5 0 -9 -7 -9 -17 0 -9 -3 -14 -6 -10 -4 3 -1 21 5
38 14 42 9 45 -82 47 -71 2 -202 15 -307 32 -30 5 -120 14 -200 21 -80 6 -200
16 -267 23 l-123 12 0 -219z m1204 -361 c-4 -11 -18 -16 -45 -16 -21 0 -39 4
-39 9 0 5 17 9 37 8 21 -1 38 4 41 12 2 7 6 10 8 8 3 -2 2 -12 -2 -21z"/>
<path d="M9310 650 c0 -5 5 -10 11 -10 5 0 7 5 4 10 -3 6 -8 10 -11 10 -2 0
-4 -4 -4 -10z"/>
<path d="M9330 581 c0 -28 -5 -51 -12 -53 -11 -4 -16 -26 -17 -90 -1 -43 -20
-52 -22 -10 -1 18 -5 10 -13 -25 -6 -30 -19 -59 -31 -67 -18 -14 -18 -15 -2
-16 19 0 18 -7 -11 -110 -14 -49 -16 -52 -23 -30 -8 30 -12 11 -10 -50 1 -28
-4 -53 -13 -65 -9 -11 -16 -14 -16 -7 0 6 -4 12 -10 12 -5 0 -10 -16 -10 -35
l0 -35 139 0 140 0 6 48 c10 74 10 76 1 90 -4 7 -5 16 -1 20 3 3 10 0 15 -8
12 -20 22 -7 25 32 2 18 8 34 14 36 6 2 11 12 11 22 0 10 5 22 11 26 7 4 9 21
5 44 -5 29 -2 41 14 55 11 10 20 24 20 32 0 7 6 16 14 19 11 4 12 13 5 36 -6
23 -4 38 9 60 22 38 12 44 -89 52 -68 6 -82 11 -110 37 -17 16 -33 29 -35 29
-2 0 -4 -22 -4 -49z m141 -334 c-8 -8 -11 -5 -11 9 0 27 14 41 18 19 2 -9 -1
-22 -7 -28z"/>
<path d="M1911 524 c0 -11 3 -14 6 -6 3 7 2 16 -1 19 -3 4 -6 -2 -5 -13z"/>
<path d="M1280 478 c0 -19 2 -20 10 -8 13 19 13 30 0 30 -5 0 -10 -10 -10 -22z"/>
<path d="M1300 469 c0 -5 5 -7 10 -4 6 3 10 8 10 11 0 2 -4 4 -10 4 -5 0 -10
-5 -10 -11z"/>
<path d="M9164 446 c-8 -22 3 -33 18 -18 9 9 9 15 0 24 -9 9 -13 7 -18 -6z"/>
<path d="M9102 380 c6 -38 -23 -70 -47 -50 -8 6 -13 19 -12 28 1 10 -2 19 -8
22 -5 3 -11 -10 -13 -27 -2 -21 -9 -33 -18 -33 -10 0 -13 -7 -9 -23 5 -18 0
-28 -19 -40 -21 -14 -24 -22 -19 -54 3 -21 11 -41 17 -45 8 -5 7 -11 -2 -20
-9 -9 -12 -9 -12 2 0 8 -4 22 -10 30 -7 12 -12 12 -29 -4 -21 -19 -22 -46 -5
-124 7 -34 -10 -44 -34 -20 -9 9 -12 8 -12 -5 0 -15 14 -17 124 -17 138 0 141
2 129 76 -4 27 -2 34 10 34 22 0 32 20 16 31 -12 8 -12 10 0 18 10 7 11 13 2
27 -10 18 -11 18 -17 -3 -10 -36 -24 -27 -24 15 0 21 9 50 21 67 12 17 19 22
15 13 -3 -10 -1 -20 4 -23 10 -6 30 26 30 49 0 19 -30 22 -30 4 -1 -7 -8 0
-16 16 -9 16 -14 41 -12 57 3 21 0 29 -10 29 -10 0 -13 -9 -10 -30z m-32 -85
c0 -8 -7 -15 -15 -15 -8 0 -15 7 -15 15 0 8 7 15 15 15 8 0 15 -7 15 -15z
m-15 -45 c3 -5 1 -10 -4 -10 -6 0 -11 5 -11 10 0 6 2 10 4 10 3 0 8 -4 11 -10z"/>
<path d="M9215 400 c3 -5 10 -10 16 -10 5 0 9 5 9 10 0 6 -7 10 -16 10 -8 0
-12 -4 -9 -10z"/>
<path d="M9160 355 c0 -14 4 -25 9 -25 12 0 23 29 15 41 -10 18 -24 9 -24 -16z"/>
<path d="M7072 309 c2 -6 8 -10 13 -10 5 0 11 4 13 10 2 6 -4 11 -13 11 -9 0
-15 -5 -13 -11z"/>
<path d="M1360 300 c0 -5 5 -10 10 -10 6 0 10 5 10 10 0 6 -4 10 -10 10 -5 0
-10 -4 -10 -10z"/>
<path d="M8922 230 c0 -19 2 -27 5 -17 2 9 2 25 0 35 -3 9 -5 1 -5 -18z"/>
<path d="M9120 229 c0 -5 5 -7 10 -4 6 3 10 8 10 11 0 2 -4 4 -10 4 -5 0 -10
-5 -10 -11z"/>
<path d="M179 216 c-2 -6 -5 -20 -8 -33 -2 -5 -7 1 -12 12 -7 14 -8 6 -4 -29
3 -29 12 -54 22 -61 13 -10 13 -14 3 -20 -8 -5 -15 -4 -18 3 -4 12 -32 0 -60
-26 -8 -7 -22 -10 -31 -8 -10 4 -20 -3 -28 -20 -12 -25 -11 -26 17 -22 17 3
30 1 30 -4 0 -4 65 -8 145 -8 80 0 145 2 145 5 0 19 -36 75 -47 71 -9 -4 -11
3 -6 26 6 28 4 31 -16 25 -17 -4 -21 -2 -17 9 3 9 -2 23 -11 32 -12 12 -18 13
-21 4 -6 -19 -22 -14 -22 7 0 10 -8 21 -17 25 -10 3 -24 9 -30 12 -7 3 -14 3
-14 0z"/>
<path d="M1722 140 c0 -14 2 -19 5 -12 2 6 2 18 0 25 -3 6 -5 1 -5 -13z"/>
<path d="M3032 108 c1 -45 4 -55 15 -51 9 3 11 12 7 22 -4 9 -10 32 -14 51 -7
31 -8 28 -8 -22z"/>
<path d="M7078 153 c7 -3 16 -2 19 1 4 3 -2 6 -13 5 -11 0 -14 -3 -6 -6z"/>
<path d="M70 131 c0 -5 5 -13 10 -16 6 -3 10 -2 10 4 0 5 -4 13 -10 16 -5 3
-10 2 -10 -4z"/>
<path d="M1748 63 c5 -21 7 -23 10 -9 2 10 0 22 -6 28 -6 6 -7 0 -4 -19z"/>
<path d="M4815 16 c-18 -14 -9 -15 115 -15 108 0 131 2 115 11 -11 7 -63 14
-115 16 -75 3 -99 0 -115 -12z"/>
<path d="M7006 15 c-4 -10 1 -15 14 -15 11 0 20 7 20 15 0 19 -26 19 -34 0z"/>
</g>
</svg>
